<svg xmlns="http://www.w3.org/2000/svg" xmlns:xlink="http://www.w3.org/1999/xlink" width="500" zoomAndPan="magnify" viewBox="0 0 375 374.999991" height="500" preserveAspectRatio="xMidYMid meet" version="1.0"><defs><g/><clipPath id="c53fbe9776"><path d="M 47.21875 47.21875 L 327.71875 47.21875 L 327.71875 327.71875 L 47.21875 327.71875 Z M 47.21875 47.21875 " clip-rule="nonzero"/></clipPath><clipPath id="4612e4f577"><path d="M 187.496094 47.21875 C 110.023438 47.21875 47.21875 110.023438 47.21875 187.496094 C 47.21875 264.972656 110.023438 327.777344 187.496094 327.777344 C 264.972656 327.777344 327.777344 264.972656 327.777344 187.496094 C 327.777344 110.023438 264.972656 47.21875 187.496094 47.21875 Z M 187.496094 47.21875 " clip-rule="nonzero"/></clipPath><clipPath id="38506de4d0"><path d="M 68.878906 68.878906 L 305.878906 68.878906 L 305.878906 305.878906 L 68.878906 305.878906 Z M 68.878906 68.878906 " clip-rule="nonzero"/></clipPath><clipPath id="181118e375"><path d="M 187.496094 68.878906 C 121.984375 68.878906 68.878906 121.984375 68.878906 187.496094 C 68.878906 253.003906 121.984375 306.113281 187.496094 306.113281 C 253.003906 306.113281 306.113281 253.003906 306.113281 187.496094 C 306.113281 121.984375 253.003906 68.878906 187.496094 68.878906 Z M 187.496094 68.878906 " clip-rule="nonzero"/></clipPath><clipPath id="e2f9927a31"><path d="M 15.339844 133.8125 L 359.660156 133.8125 L 359.660156 251.273438 L 15.339844 251.273438 Z M 15.339844 133.8125 " clip-rule="nonzero"/></clipPath><clipPath id="6999a79e6a"><path d="M 57 218 L 318 218 L 318 252 L 57 252 Z M 57 218 " clip-rule="nonzero"/></clipPath><clipPath id="9c8aed1007"><path d="M 55.464844 224.925781 L 315.457031 202.003906 L 319.210938 244.585938 L 59.21875 267.511719 Z M 55.464844 224.925781 " clip-rule="nonzero"/></clipPath><clipPath id="ba3bcb6d40"><path d="M 55.464844 224.925781 L 315.457031 202.003906 L 319.210938 244.585938 L 59.21875 267.511719 Z M 55.464844 224.925781 " clip-rule="nonzero"/></clipPath><clipPath id="b050be6300"><path d="M 55.628906 224.914062 L 315.609375 201.988281 L 319.371094 244.625 L 59.386719 267.550781 Z M 55.628906 224.914062 " clip-rule="nonzero"/></clipPath><clipPath id="23070b8e2e"><path d="M 55.628906 224.914062 L 315.609375 201.988281 L 319.367188 244.609375 L 59.386719 267.53125 Z M 55.628906 224.914062 " clip-rule="nonzero"/></clipPath><clipPath id="59e52bae14"><path d="M 97 231 L 154 231 L 154 254 L 97 254 Z M 97 231 " clip-rule="nonzero"/></clipPath><clipPath id="87e05d7a20"><path d="M 94.3125 239.253906 L 150.359375 225.335938 L 155.78125 247.171875 L 99.734375 261.089844 Z M 94.3125 239.253906 " clip-rule="nonzero"/></clipPath><clipPath id="e2a7140c89"><path d="M 94.3125 239.253906 L 150.359375 225.335938 L 155.78125 247.171875 L 99.734375 261.089844 Z M 94.3125 239.253906 " clip-rule="nonzero"/></clipPath><clipPath id="898da31395"><path d="M 218 218 L 276 218 L 276 238 L 218 238 Z M 218 218 " clip-rule="nonzero"/></clipPath><clipPath id="a994c5997b"><path d="M 218.761719 213.222656 L 276.277344 218.410156 L 274.257812 240.820312 L 216.738281 235.632812 Z M 218.761719 213.222656 " clip-rule="nonzero"/></clipPath><clipPath id="8aa4bc544e"><path d="M 216.761719 235.398438 L 274.277344 240.585938 L 276.296875 218.175781 L 218.78125 212.992188 Z M 216.761719 235.398438 " clip-rule="nonzero"/></clipPath><clipPath id="f222a73b66"><path d="M 168.9375 252.511719 L 204.558594 252.511719 L 204.558594 283.753906 L 168.9375 283.753906 Z M 168.9375 252.511719 " clip-rule="nonzero"/></clipPath><clipPath id="aaf3790baa"><path d="M 170.347656 257.601562 C 167.464844 262.351562 169.496094 266.976562 172.050781 269.433594 L 186.980469 283.753906 L 201.59375 269.484375 C 203.96875 266.84375 204.878906 264.042969 204.375 260.921875 C 203.675781 256.609375 200.121094 253.261719 195.726562 252.785156 C 193.035156 252.496094 190.433594 253.257812 188.402344 254.945312 C 187.855469 255.398438 187.367188 255.90625 186.941406 256.457031 C 186.4375 255.828125 185.84375 255.253906 185.171875 254.746094 C 182.839844 252.96875 179.867188 252.265625 177.011719 252.8125 C 174.304688 253.335938 171.878906 255.082031 170.347656 257.601562 Z M 170.347656 257.601562 " clip-rule="nonzero"/></clipPath><clipPath id="d83d68eeec"><path d="M 204.507812 260.679688 L 230.816406 260.679688 L 230.816406 283.753906 L 204.507812 283.753906 Z M 204.507812 260.679688 " clip-rule="nonzero"/></clipPath><clipPath id="c76b53d71e"><path d="M 205.550781 264.441406 C 203.417969 267.949219 204.921875 271.363281 206.804688 273.175781 L 217.832031 283.753906 L 228.625 273.214844 C 230.378906 271.265625 231.050781 269.195312 230.679688 266.894531 C 230.164062 263.707031 227.539062 261.234375 224.292969 260.882812 C 222.304688 260.667969 220.382812 261.230469 218.882812 262.476562 C 218.480469 262.8125 218.117188 263.1875 217.804688 263.59375 C 217.429688 263.128906 216.992188 262.707031 216.5 262.332031 C 214.773438 261.019531 212.578125 260.5 210.46875 260.902344 C 208.472656 261.289062 206.679688 262.578125 205.550781 264.441406 Z M 205.550781 264.441406 " clip-rule="nonzero"/></clipPath><clipPath id="179c2eaf22"><path d="M 142.667969 260.679688 L 168.976562 260.679688 L 168.976562 283.753906 L 142.667969 283.753906 Z M 142.667969 260.679688 " clip-rule="nonzero"/></clipPath><clipPath id="9f3ad5fef1"><path d="M 143.710938 264.441406 C 141.578125 267.949219 143.082031 271.363281 144.964844 273.175781 L 155.992188 283.753906 L 166.785156 273.214844 C 168.539062 271.265625 169.210938 269.195312 168.839844 266.894531 C 168.324219 263.707031 165.699219 261.234375 162.453125 260.882812 C 160.464844 260.667969 158.542969 261.230469 157.042969 262.476562 C 156.640625 262.8125 156.277344 263.1875 155.964844 263.59375 C 155.589844 263.128906 155.152344 262.707031 154.660156 262.332031 C 152.933594 261.019531 150.738281 260.5 148.628906 260.902344 C 146.632812 261.289062 144.839844 262.578125 143.710938 264.441406 Z M 143.710938 264.441406 " clip-rule="nonzero"/></clipPath><clipPath id="9e64adabfc"><path d="M 152.683594 86.636719 L 222.304688 86.636719 L 222.304688 139.886719 L 152.683594 139.886719 Z M 152.683594 86.636719 " clip-rule="nonzero"/></clipPath><clipPath id="bf8ea8c126"><path d="M 166.6875 96.660156 L 182.4375 96.660156 L 182.4375 109 L 166.6875 109 Z M 166.6875 96.660156 " clip-rule="nonzero"/></clipPath></defs><g clip-path="url(#c53fbe9776)"><g clip-path="url(#4612e4f577)"><path stroke-linecap="butt" transform="matrix(0.75, 0, 0, 0.75, 47.217364, 47.217359)" fill="none" stroke-linejoin="miter" d="M 187.038319 0.00185427 C 83.741437 0.00185427 0.00184827 83.741443 0.00184827 187.038325 C 0.00184827 290.340415 83.741437 374.080004 187.038319 374.080004 C 290.340409 374.080004 374.079998 290.340415 374.079998 187.038325 C 374.079998 83.741443 290.340409 0.00185427 187.038319 0.00185427 Z M 187.038319 0.00185427 " stroke="#018c33" stroke-width="24" stroke-opacity="1" stroke-miterlimit="4"/></g></g><g clip-path="url(#38506de4d0)"><g clip-path="url(#181118e375)"><path stroke-linecap="butt" transform="matrix(0.75, 0, 0, 0.75, 68.878037, 68.878032)" fill="none" stroke-linejoin="miter" d="M 158.15742 0.0011653 C 70.808456 0.0011653 0.0011593 70.808462 0.0011593 158.157426 C 0.0011593 245.501181 70.808456 316.313686 158.15742 316.313686 C 245.501175 316.313686 316.31368 245.501181 316.31368 158.157426 C 316.31368 70.808462 245.501175 0.0011653 158.15742 0.0011653 Z M 158.15742 0.0011653 " stroke="#d8011b" stroke-width="8" stroke-opacity="1" stroke-miterlimit="4"/></g></g><g clip-path="url(#e2f9927a31)"><path fill="#1e1e1e" d="M 15.339844 133.8125 L 359.46875 133.8125 L 359.46875 251.273438 L 15.339844 251.273438 Z M 15.339844 133.8125 " fill-opacity="1" fill-rule="nonzero"/></g><g clip-path="url(#6999a79e6a)"><g clip-path="url(#9c8aed1007)"><g clip-path="url(#ba3bcb6d40)"><g clip-path="url(#b050be6300)"><g clip-path="url(#23070b8e2e)"><path fill="#ffffff" d="M 71.382812 236.03125 C 76.316406 233.054688 81.496094 230.445312 86.839844 228.1875 C 89.484375 227.078125 92.167969 226.0625 94.886719 225.132812 C 97.671875 224.171875 100.5 223.320312 103.355469 222.554688 C 104.050781 222.375 104.746094 222.191406 105.441406 222.019531 C 105.613281 221.964844 107.371094 221.570312 107.542969 221.519531 C 108.988281 221.195312 110.441406 220.882812 111.902344 220.605469 L 112.980469 220.398438 L 114.0625 220.207031 C 114.785156 220.085938 115.507812 219.949219 116.230469 219.847656 C 116.421875 219.808594 118.21875 219.558594 118.40625 219.519531 L 120.589844 219.242188 C 120.734375 219.230469 121.023438 219.191406 121.167969 219.175781 C 121.3125 219.164062 121.597656 219.125 121.746094 219.113281 C 122.035156 219.085938 122.609375 219.015625 122.902344 218.992188 C 123.191406 218.96875 123.769531 218.902344 124.058594 218.878906 C 124.445312 218.84375 124.832031 218.808594 125.21875 218.777344 C 126.410156 218.6875 127.597656 218.605469 128.789062 218.546875 C 129.332031 218.523438 130.449219 218.460938 130.992188 218.449219 C 131.082031 218.441406 131.984375 218.417969 132.074219 218.410156 C 132.164062 218.402344 133.066406 218.394531 133.15625 218.390625 C 133.878906 218.378906 134.601562 218.363281 135.324219 218.359375 C 135.503906 218.347656 137.3125 218.378906 137.492188 218.371094 C 138.425781 218.386719 139.359375 218.410156 140.292969 218.441406 C 141.070312 218.464844 141.84375 218.5 142.621094 218.539062 C 143.699219 218.601562 144.777344 218.671875 145.851562 218.773438 L 147.242188 218.867188 C 147.707031 218.902344 148.171875 218.953125 148.632812 218.992188 L 150.542969 219.203125 C 151.175781 219.28125 151.808594 219.371094 152.445312 219.453125 L 153.832031 219.617188 C 154.292969 219.675781 154.753906 219.746094 155.214844 219.8125 C 155.503906 219.859375 156.085938 219.941406 156.378906 219.992188 C 156.765625 220.050781 157.152344 220.117188 157.539062 220.183594 C 162.457031 221.011719 167.328125 222.109375 172.121094 223.472656 C 172.296875 223.515625 174.027344 224.027344 174.199219 224.074219 C 174.890625 224.28125 175.578125 224.5 176.265625 224.714844 C 176.355469 224.738281 177.214844 225.015625 177.300781 225.042969 C 177.644531 225.148438 177.988281 225.261719 178.328125 225.378906 C 178.5 225.429688 180.203125 226.023438 180.375 226.078125 C 180.460938 226.105469 181.3125 226.402344 181.398438 226.429688 C 181.484375 226.457031 182.328125 226.777344 182.410156 226.804688 C 182.582031 226.859375 184.269531 227.5 184.4375 227.558594 C 184.480469 227.570312 184.902344 227.730469 184.945312 227.746094 C 184.988281 227.761719 185.40625 227.929688 185.445312 227.945312 C 185.53125 227.976562 186.367188 228.3125 186.449219 228.34375 C 186.621094 228.40625 188.289062 229.085938 188.457031 229.148438 C 190.070312 229.8125 191.683594 230.464844 193.304688 231.101562 C 202.042969 234.546875 211.046875 237.261719 220.238281 239.054688 C 220.578125 239.121094 220.917969 239.191406 221.261719 239.253906 C 221.421875 239.292969 222.359375 239.457031 222.519531 239.492188 C 222.84375 239.546875 223.164062 239.605469 223.484375 239.664062 C 223.757812 239.707031 224.265625 239.800781 224.539062 239.839844 C 224.695312 239.875 226.40625 240.125 226.5625 240.152344 C 226.90625 240.203125 227.246094 240.261719 227.589844 240.304688 C 227.675781 240.320312 228.539062 240.425781 228.621094 240.441406 C 229.226562 240.527344 229.832031 240.605469 230.4375 240.675781 C 232.585938 240.9375 234.738281 241.140625 236.894531 241.304688 C 237.34375 241.339844 237.796875 241.371094 238.246094 241.398438 C 238.738281 241.421875 239.714844 241.496094 240.207031 241.511719 C 240.863281 241.542969 241.515625 241.570312 242.171875 241.59375 C 242.417969 241.597656 242.910156 241.625 243.15625 241.628906 C 243.402344 241.628906 243.894531 241.648438 244.140625 241.652344 C 244.796875 241.664062 245.453125 241.675781 246.113281 241.679688 C 248.625 241.703125 251.144531 241.65625 253.660156 241.539062 C 254.164062 241.507812 255.15625 241.472656 255.660156 241.433594 C 256.160156 241.390625 257.15625 241.34375 257.660156 241.296875 C 258.328125 241.25 258.992188 241.1875 259.660156 241.128906 C 259.914062 241.101562 260.414062 241.066406 260.664062 241.039062 C 260.914062 241.007812 261.414062 240.96875 261.667969 240.9375 C 264.484375 240.640625 267.292969 240.261719 270.097656 239.792969 C 272.84375 239.34375 275.582031 238.804688 278.3125 238.195312 C 281.003906 237.59375 283.679688 236.90625 286.339844 236.148438 C 289.027344 235.390625 291.691406 234.550781 294.335938 233.636719 C 294.578125 233.542969 295.074219 233.394531 295.3125 233.300781 C 295.554688 233.203125 296.046875 233.046875 296.289062 232.953125 C 296.941406 232.71875 297.589844 232.480469 298.242188 232.234375 C 299.570312 231.734375 300.898438 231.214844 302.21875 230.671875 C 304.820312 229.609375 307.40625 228.46875 309.953125 227.242188 C 311.234375 226.632812 312.5 225.996094 313.757812 225.335938 C 314.390625 225.007812 315.015625 224.671875 315.636719 224.328125 C 316.257812 223.984375 316.878906 223.636719 317.484375 223.269531 C 316.449219 224.253906 315.355469 225.179688 314.238281 226.078125 C 313.121094 226.976562 311.976562 227.839844 310.8125 228.683594 C 308.484375 230.363281 306.078125 231.949219 303.609375 233.4375 C 299.074219 236.199219 294.328125 238.640625 289.429688 240.78125 C 288.847656 241.035156 288.261719 241.285156 287.675781 241.53125 C 284.921875 242.683594 282.117188 243.730469 279.277344 244.6875 C 277.597656 245.25 275.90625 245.777344 274.199219 246.265625 C 273.023438 246.605469 271.84375 246.925781 270.65625 247.234375 C 269.203125 247.613281 267.742188 247.960938 266.273438 248.277344 C 266.03125 248.328125 265.511719 248.445312 265.269531 248.492188 C 265.03125 248.539062 264.507812 248.652344 264.265625 248.699219 C 263.5 248.847656 262.734375 248.996094 261.964844 249.132812 C 261.863281 249.152344 260.960938 249.3125 260.855469 249.335938 C 260.769531 249.351562 259.886719 249.492188 259.800781 249.507812 C 259.265625 249.589844 258.164062 249.78125 257.625 249.847656 C 257.414062 249.882812 255.59375 250.128906 255.382812 250.160156 C 255.171875 250.191406 253.347656 250.394531 253.132812 250.421875 C 250.132812 250.746094 247.121094 250.976562 244.097656 251.089844 C 243.34375 251.125 242.585938 251.132812 241.832031 251.152344 C 241.726562 251.152344 240.804688 251.171875 240.699219 251.171875 C 240.59375 251.171875 239.671875 251.171875 239.566406 251.171875 C 238.808594 251.171875 238.054688 251.171875 237.300781 251.160156 C 237.082031 251.15625 235.246094 251.109375 235.03125 251.101562 C 232.007812 250.992188 228.984375 250.804688 225.976562 250.472656 C 225.867188 250.460938 224.949219 250.367188 224.839844 250.351562 C 224.460938 250.3125 224.085938 250.261719 223.710938 250.214844 C 223.5 250.1875 221.671875 249.960938 221.460938 249.925781 C 220.710938 249.820312 219.964844 249.703125 219.214844 249.589844 C 219.109375 249.570312 218.199219 249.433594 218.09375 249.414062 C 217.722656 249.355469 217.347656 249.285156 216.976562 249.21875 C 216.765625 249.175781 214.953125 248.863281 214.742188 248.816406 C 214 248.675781 213.261719 248.515625 212.519531 248.363281 C 211.035156 248.066406 209.566406 247.710938 208.09375 247.363281 C 207.726562 247.277344 207.359375 247.183594 206.992188 247.089844 C 206.890625 247.058594 205.996094 246.832031 205.894531 246.800781 C 205.792969 246.769531 204.898438 246.542969 204.796875 246.511719 C 204.433594 246.414062 204.066406 246.320312 203.703125 246.214844 C 203.5 246.148438 201.726562 245.652344 201.523438 245.582031 C 201.160156 245.476562 200.796875 245.371094 200.4375 245.261719 C 200.335938 245.226562 199.453125 244.957031 199.355469 244.921875 C 199.152344 244.847656 197.394531 244.304688 197.195312 244.230469 C 196.480469 243.992188 195.765625 243.742188 195.050781 243.496094 C 194.953125 243.457031 194.082031 243.164062 193.984375 243.121094 C 193.628906 243 193.269531 242.871094 192.917969 242.738281 C 192.773438 242.675781 191.09375 242.074219 190.945312 242.015625 C 190.871094 241.984375 190.03125 241.679688 189.957031 241.652344 C 189.882812 241.621094 189.050781 241.300781 188.976562 241.273438 C 188.828125 241.214844 187.160156 240.574219 187.011719 240.515625 C 186.976562 240.503906 186.558594 240.34375 186.523438 240.328125 C 186.484375 240.3125 186.074219 240.144531 186.035156 240.132812 C 185.960938 240.101562 185.132812 239.765625 185.058594 239.738281 C 184.910156 239.683594 183.257812 239.011719 183.105469 238.957031 C 175.824219 235.980469 168.34375 233.511719 160.714844 231.664062 C 157.84375 230.96875 154.953125 230.363281 152.042969 229.84375 C 151.710938 229.785156 151.378906 229.722656 151.046875 229.667969 C 150.972656 229.65625 150.125 229.515625 150.046875 229.503906 C 149.382812 229.398438 148.714844 229.289062 148.046875 229.1875 C 147.894531 229.167969 146.191406 228.929688 146.039062 228.910156 C 145.707031 228.867188 145.371094 228.816406 145.035156 228.777344 C 144.960938 228.765625 144.105469 228.667969 144.03125 228.660156 C 141.347656 228.335938 138.65625 228.101562 135.957031 227.933594 C 132.902344 227.753906 129.84375 227.671875 126.777344 227.691406 C 126.21875 227.699219 125.171875 227.703125 124.613281 227.722656 C 124.050781 227.738281 123 227.761719 122.441406 227.785156 C 122.082031 227.800781 121.71875 227.8125 121.355469 227.832031 C 120.9375 227.855469 120.269531 227.886719 119.847656 227.914062 C 119.570312 227.933594 119.046875 227.957031 118.769531 227.976562 C 118.492188 228 117.964844 228.03125 117.691406 228.054688 C 114.796875 228.261719 111.902344 228.558594 109.019531 228.949219 C 107.226562 229.191406 105.441406 229.46875 103.65625 229.777344 C 100.980469 230.242188 98.3125 230.789062 95.652344 231.402344 C 94.308594 231.714844 92.972656 232.042969 91.636719 232.394531 C 91.363281 232.472656 90.832031 232.601562 90.554688 232.683594 C 90.195312 232.78125 89.832031 232.878906 89.472656 232.980469 C 89.195312 233.066406 88.664062 233.199219 88.390625 233.289062 C 88.171875 233.347656 87.953125 233.414062 87.734375 233.476562 C 87.59375 233.515625 87.449219 233.558594 87.304688 233.601562 C 86.582031 233.8125 85.863281 234.027344 85.144531 234.253906 C 84.421875 234.480469 83.703125 234.710938 82.984375 234.945312 C 82.707031 235.046875 82.179688 235.203125 81.90625 235.304688 C 81.628906 235.40625 81.101562 235.570312 80.828125 235.671875 C 80.53125 235.777344 80.230469 235.878906 79.929688 235.984375 C 79.511719 236.132812 79.09375 236.28125 78.675781 236.433594 C 78.128906 236.648438 77.074219 237 76.527344 237.226562 C 75.8125 237.5 75.097656 237.777344 74.386719 238.0625 C 73.675781 238.34375 72.96875 238.628906 72.265625 238.925781 C 70.117188 239.820312 67.984375 240.765625 65.875 241.769531 C 65.503906 241.945312 65.136719 242.125 64.765625 242.304688 C 63.53125 242.902344 62.3125 243.527344 61.097656 244.171875 C 60.488281 244.492188 59.886719 244.820312 59.289062 245.15625 C 58.6875 245.492188 58.089844 245.835938 57.503906 246.191406 C 58.539062 245.210938 59.636719 244.285156 60.753906 243.386719 C 61.871094 242.488281 63.015625 241.625 64.179688 240.78125 C 66.507812 239.101562 68.914062 237.519531 71.382812 236.03125 " fill-opacity="1" fill-rule="nonzero"/></g></g></g></g></g><g clip-path="url(#59e52bae14)"><g clip-path="url(#87e05d7a20)"><g clip-path="url(#e2a7140c89)"><path fill="#018c33" d="M 142.839844 246.769531 C 139.773438 244.273438 136.34375 242.464844 132.550781 241.34375 C 128.550781 240.171875 124.476562 239.820312 120.332031 240.289062 C 115.96875 240.785156 111.871094 242.105469 108.039062 244.246094 C 104.019531 246.503906 100.585938 249.449219 97.746094 253.082031 C 99.746094 248.6875 102.515625 244.847656 106.054688 241.558594 C 109.757812 238.128906 113.984375 235.546875 118.722656 233.816406 C 123.671875 231.992188 128.777344 231.195312 134.042969 231.421875 C 139.523438 231.664062 144.746094 232.957031 149.710938 235.289062 L 149.988281 235.425781 C 150.398438 235.613281 150.78125 235.835938 151.144531 236.097656 C 151.503906 236.359375 151.839844 236.652344 152.140625 236.980469 C 152.445312 237.308594 152.714844 237.660156 152.949219 238.042969 C 153.183594 238.421875 153.375 238.824219 153.53125 239.242188 C 153.683594 239.660156 153.796875 240.09375 153.863281 240.535156 C 153.933594 240.976562 153.960938 241.417969 153.941406 241.863281 C 153.921875 242.3125 153.859375 242.75 153.753906 243.183594 C 153.644531 243.617188 153.496094 244.039062 153.308594 244.441406 C 153.117188 244.847656 152.890625 245.230469 152.625 245.589844 C 152.363281 245.949219 152.0625 246.277344 151.734375 246.578125 C 151.402344 246.878906 151.046875 247.144531 150.664062 247.375 C 150.277344 247.601562 149.878906 247.792969 149.457031 247.941406 C 149.035156 248.09375 148.605469 248.199219 148.160156 248.265625 C 147.71875 248.328125 147.277344 248.347656 146.828125 248.324219 C 146.382812 248.300781 145.945312 248.234375 145.511719 248.125 C 145.078125 248.011719 144.660156 247.859375 144.257812 247.667969 C 143.75 247.425781 143.277344 247.128906 142.839844 246.769531 Z M 142.839844 246.769531 " fill-opacity="1" fill-rule="nonzero"/></g></g></g><g clip-path="url(#898da31395)"><g clip-path="url(#a994c5997b)"><g clip-path="url(#8aa4bc544e)"><path fill="#d8011b" d="M 263.570312 220.550781 C 260.921875 223.488281 257.808594 225.800781 254.230469 227.488281 C 250.457031 229.257812 246.484375 230.230469 242.316406 230.402344 C 237.929688 230.574219 233.679688 229.898438 229.5625 228.371094 C 225.242188 226.75 221.402344 224.363281 218.039062 221.210938 C 220.691406 225.246094 224.011719 228.621094 228.011719 231.328125 C 232.199219 234.148438 236.765625 236.054688 241.71875 237.042969 C 246.882812 238.085938 252.050781 238.097656 257.21875 237.066406 C 262.597656 235.988281 267.5625 233.914062 272.113281 230.847656 L 272.367188 230.667969 C 272.742188 230.425781 273.089844 230.144531 273.40625 229.832031 C 273.722656 229.515625 274.007812 229.175781 274.257812 228.804688 C 274.507812 228.433594 274.71875 228.042969 274.894531 227.632812 C 275.066406 227.21875 275.195312 226.796875 275.285156 226.355469 C 275.371094 225.917969 275.417969 225.476562 275.417969 225.03125 C 275.417969 224.582031 275.375 224.140625 275.289062 223.703125 C 275.199219 223.265625 275.070312 222.839844 274.902344 222.425781 C 274.730469 222.015625 274.519531 221.621094 274.269531 221.253906 C 274.019531 220.882812 273.738281 220.539062 273.421875 220.222656 C 273.105469 219.910156 272.757812 219.628906 272.386719 219.382812 C 272.011719 219.136719 271.621094 218.929688 271.207031 218.761719 C 270.792969 218.59375 270.367188 218.464844 269.925781 218.382812 C 269.488281 218.296875 269.046875 218.257812 268.597656 218.261719 C 268.152344 218.265625 267.710938 218.3125 267.273438 218.40625 C 266.835938 218.496094 266.414062 218.628906 266 218.804688 C 265.589844 218.980469 265.203125 219.195312 264.832031 219.449219 C 264.367188 219.765625 263.945312 220.132812 263.570312 220.550781 Z M 263.570312 220.550781 " fill-opacity="1" fill-rule="nonzero"/></g></g></g><g clip-path="url(#f222a73b66)"><g clip-path="url(#aaf3790baa)"><path fill="#ffffff" d="M 168.9375 252.632812 L 204.558594 252.632812 L 204.558594 283.753906 L 168.9375 283.753906 Z M 168.9375 252.632812 " fill-opacity="1" fill-rule="nonzero"/></g></g><g clip-path="url(#d83d68eeec)"><g clip-path="url(#c76b53d71e)"><path fill="#d8011b" d="M 204.507812 260.769531 L 230.816406 260.769531 L 230.816406 283.753906 L 204.507812 283.753906 Z M 204.507812 260.769531 " fill-opacity="1" fill-rule="nonzero"/></g></g><g clip-path="url(#179c2eaf22)"><g clip-path="url(#9f3ad5fef1)"><path fill="#018c33" d="M 142.667969 260.769531 L 168.976562 260.769531 L 168.976562 283.753906 L 142.667969 283.753906 Z M 142.667969 260.769531 " fill-opacity="1" fill-rule="nonzero"/></g></g><g clip-path="url(#9e64adabfc)"><path fill="#d8011b" d="M 208.539062 131.394531 C 209.195312 130.0625 209.8125 128.804688 211.351562 127.4375 C 212.890625 126.070312 214.371094 125.789062 215.941406 125.496094 C 216.632812 125.375 217.320312 125.21875 217.996094 125.023438 C 218.550781 125.230469 219.066406 125.507812 219.542969 125.855469 C 220.101562 126.265625 220.582031 126.75 220.980469 127.3125 C 221.25 127.691406 221.476562 128.09375 221.65625 128.515625 C 222.144531 129.671875 222.3125 130.871094 222.160156 132.117188 C 222.136719 132.332031 222.097656 132.546875 222.054688 132.761719 C 221.855469 133.738281 221.492188 134.652344 220.964844 135.5 C 220.871094 135.652344 220.773438 135.804688 220.667969 135.949219 C 219.984375 136.933594 219.136719 137.742188 218.117188 138.375 C 216.785156 139.226562 215.332031 139.65625 213.75 139.667969 C 212.1875 139.667969 210.789062 139.191406 209.675781 138.375 C 208.925781 137.828125 208.324219 137.148438 207.871094 136.335938 C 207.640625 135.929688 207.457031 135.503906 207.320312 135.054688 C 207.203125 134.679688 207.121094 134.300781 207.074219 133.910156 C 207.082031 133.898438 207.09375 133.890625 207.101562 133.878906 C 207.726562 133.042969 208.140625 132.203125 208.539062 131.394531 Z M 210.476562 133.175781 C 210.746094 134.960938 212.203125 136.28125 214.136719 136.28125 C 216.066406 136.28125 217.828125 134.960938 218.5 133.175781 C 218.636719 132.835938 218.726562 132.480469 218.773438 132.117188 C 219.035156 129.816406 217.382812 127.953125 215.085938 127.953125 C 212.785156 127.953125 210.707031 129.816406 210.445312 132.117188 C 210.410156 132.472656 210.421875 132.824219 210.476562 133.175781 Z M 198.011719 90.363281 L 202.878906 90.589844 C 202.578125 88.503906 200.914062 86.921875 198.664062 86.820312 C 195.484375 86.671875 193.296875 88.835938 192.851562 91.617188 C 192.789062 92.015625 192.808594 93.539062 192.820312 94.265625 C 192.820312 94.519531 192.941406 94.695312 193.179688 94.792969 L 199.820312 97.460938 C 200.132812 97.570312 200.394531 97.5 200.605469 97.242188 C 201.261719 96.496094 201.792969 95.671875 202.199219 94.769531 L 197.566406 93.203125 C 197.421875 93.152344 197.308594 93.0625 197.234375 92.929688 C 197.15625 92.796875 197.132812 92.652344 197.160156 92.5 L 197.425781 90.84375 C 197.453125 90.703125 197.519531 90.585938 197.628906 90.496094 C 197.742188 90.402344 197.867188 90.359375 198.011719 90.363281 Z M 184.609375 112.132812 L 186.59375 94.675781 C 186.613281 94.5625 186.601562 94.449219 186.570312 94.339844 C 186.539062 94.230469 186.484375 94.128906 186.40625 94.042969 C 186.328125 93.957031 186.238281 93.890625 186.132812 93.847656 C 186.027344 93.800781 185.917969 93.777344 185.800781 93.78125 L 165.8125 93.78125 C 165.558594 93.785156 165.335938 93.875 165.148438 94.042969 C 164.960938 94.214844 164.847656 94.425781 164.816406 94.675781 L 164.699219 95.714844 L 160.785156 95.714844 C 160.3125 95.714844 159.84375 96.054688 159.742188 96.523438 C 159.625 97.0625 159.996094 97.519531 160.527344 97.519531 L 166.757812 97.519531 C 167.230469 97.519531 167.621094 97.859375 167.613281 98.332031 C 167.605469 98.605469 167.5 98.835938 167.304688 99.03125 C 167.109375 99.222656 166.875 99.320312 166.601562 99.328125 L 157.636719 99.328125 C 157.378906 99.332031 157.15625 99.421875 156.964844 99.59375 C 156.777344 99.765625 156.664062 99.976562 156.628906 100.230469 C 156.613281 100.34375 156.621094 100.457031 156.65625 100.570312 C 156.6875 100.679688 156.742188 100.78125 156.820312 100.867188 C 156.898438 100.953125 156.988281 101.023438 157.097656 101.066406 C 157.203125 101.113281 157.3125 101.136719 157.429688 101.132812 L 166.34375 101.132812 C 166.816406 101.132812 167.210938 101.472656 167.203125 101.945312 C 167.191406 102.21875 167.089844 102.449219 166.894531 102.644531 C 166.699219 102.835938 166.464844 102.933594 166.191406 102.941406 L 155.0625 102.941406 C 154.589844 102.941406 154.121094 103.28125 154.023438 103.75 C 153.90625 104.292969 154.277344 104.746094 154.808594 104.746094 L 165.933594 104.746094 C 166.40625 104.746094 166.796875 105.085938 166.792969 105.558594 C 166.78125 105.832031 166.679688 106.0625 166.484375 106.257812 C 166.289062 106.449219 166.054688 106.546875 165.78125 106.554688 L 163.464844 106.554688 L 162.789062 112.488281 C 162.769531 112.605469 162.78125 112.714844 162.8125 112.828125 C 162.84375 112.9375 162.898438 113.035156 162.976562 113.121094 C 163.054688 113.207031 163.144531 113.273438 163.25 113.320312 C 163.355469 113.367188 163.464844 113.386719 163.582031 113.382812 L 183.210938 113.382812 C 183.566406 113.375 183.878906 113.253906 184.140625 113.015625 C 184.40625 112.777344 184.5625 112.484375 184.609375 112.132812 Z M 153.730469 122.328125 L 175.28125 122.328125 C 175.535156 122.320312 175.757812 122.234375 175.949219 122.0625 C 176.140625 121.890625 176.253906 121.679688 176.285156 121.425781 C 176.300781 121.308594 176.292969 121.195312 176.261719 121.085938 C 176.226562 120.972656 176.171875 120.875 176.09375 120.785156 C 176.019531 120.699219 175.925781 120.632812 175.820312 120.585938 C 175.714844 120.539062 175.601562 120.519531 175.484375 120.519531 L 166.9375 120.519531 C 166.820312 120.523438 166.710938 120.5 166.601562 120.457031 C 166.496094 120.410156 166.40625 120.34375 166.328125 120.253906 C 166.25 120.167969 166.195312 120.070312 166.160156 119.957031 C 166.128906 119.847656 166.121094 119.734375 166.136719 119.617188 C 166.171875 119.363281 166.28125 119.152344 166.472656 118.980469 C 166.664062 118.808594 166.886719 118.71875 167.144531 118.714844 L 174.628906 118.714844 C 174.808594 118.710938 174.976562 118.660156 175.128906 118.5625 C 175.414062 118.378906 175.652344 118.238281 175.828125 118.136719 C 176.042969 118.007812 176.277344 117.945312 176.53125 117.941406 L 194.039062 117.941406 L 192.121094 124.09375 C 191.511719 126.050781 192.800781 127.875 194.796875 127.875 L 199.421875 127.875 C 200.683594 127.875 201.914062 127.152344 202.59375 126.019531 L 205.609375 120.964844 C 206.363281 119.71875 206.703125 118.371094 206.621094 116.914062 L 205.984375 107.199219 C 205.75 107.3125 205.507812 107.375 205.246094 107.386719 L 200.347656 107.652344 C 199.089844 107.699219 197.953125 107.152344 197.273438 106.179688 L 195.253906 103.417969 L 193.378906 108.949219 C 193.214844 109.445312 193.472656 109.929688 193.957031 110.027344 C 195.261719 110.285156 197.765625 110.785156 199.78125 111.199219 C 201.710938 111.597656 202.761719 113.53125 202.117188 115.503906 L 198.5625 125.234375 C 198.207031 126.335938 197.050781 127.042969 195.976562 126.824219 C 194.910156 126.605469 194.3125 125.554688 194.632812 124.457031 L 197.617188 115.636719 L 195.15625 115.277344 L 194.988281 116.738281 C 194.96875 116.875 194.910156 116.992188 194.804688 117.082031 C 194.703125 117.175781 194.582031 117.222656 194.441406 117.226562 L 176.066406 117.226562 C 175.933594 117.230469 175.824219 117.183594 175.738281 117.082031 C 175.648438 116.984375 175.613281 116.867188 175.632812 116.738281 L 175.84375 114.894531 C 175.863281 114.753906 175.921875 114.640625 176.027344 114.546875 C 176.128906 114.453125 176.25 114.40625 176.390625 114.402344 L 189.644531 114.402344 C 187.089844 113.605469 185.722656 110.898438 186.625 108.105469 L 189.6875 100.039062 C 190.824219 96.503906 194.824219 95.632812 196.789062 98.429688 L 200.335938 103.515625 C 200.519531 103.773438 200.769531 103.902344 201.082031 103.910156 L 205.636719 103.96875 C 205.726562 103.972656 205.8125 103.984375 205.898438 104.003906 L 205.996094 103.144531 C 206.03125 102.882812 206.140625 102.65625 206.324219 102.464844 C 206.507812 102.277344 206.730469 102.160156 206.988281 102.117188 L 212.8125 101.207031 C 212.9375 101.183594 213.0625 101.1875 213.183594 101.222656 C 213.304688 101.257812 213.410156 101.316406 213.503906 101.40625 C 213.59375 101.492188 213.664062 101.59375 213.703125 101.714844 C 213.746094 101.835938 213.757812 101.957031 213.742188 102.082031 L 213.210938 106.742188 C 213.148438 107.285156 212.613281 107.703125 212.085938 107.617188 L 209.632812 107.21875 L 212.472656 117.835938 C 212.734375 118.804688 212.476562 119.894531 211.792969 120.75 L 211.460938 121.164062 L 210.714844 122.089844 C 211.835938 121.550781 213.015625 121.21875 214.253906 121.09375 C 214.558594 121.0625 214.855469 121.050781 215.148438 121.046875 C 215.222656 121.046875 215.292969 121.050781 215.363281 121.050781 C 215.726562 121.054688 216.085938 121.078125 216.445312 121.121094 C 216.808594 121.167969 217.171875 121.238281 217.527344 121.328125 C 217.589844 121.34375 217.652344 121.359375 217.714844 121.375 C 218.039062 121.464844 218.359375 121.570312 218.671875 121.695312 C 218.730469 121.71875 218.785156 121.746094 218.84375 121.769531 C 219.160156 121.902344 219.46875 122.054688 219.765625 122.222656 C 220.109375 122.425781 220.4375 122.648438 220.75 122.898438 C 220.75 122.898438 220.710938 122.941406 220.632812 123.011719 C 220.519531 123.117188 220.398438 123.21875 220.273438 123.308594 C 220.191406 123.371094 220.097656 123.4375 219.992188 123.503906 C 219.742188 123.667969 219.480469 123.8125 219.210938 123.945312 C 219.054688 124.019531 218.886719 124.097656 218.703125 124.171875 C 218.125 124.402344 217.527344 124.582031 216.914062 124.714844 C 214.898438 125.160156 212.996094 125.210938 210.972656 127.007812 C 210.136719 127.738281 209.433594 128.582031 208.871094 129.539062 C 208.707031 129.8125 208.558594 130.085938 208.417969 130.355469 C 208.3125 130.554688 208.214844 130.757812 208.117188 130.957031 C 207.972656 131.246094 207.832031 131.535156 207.683594 131.824219 C 207.523438 132.132812 207.359375 132.441406 207.171875 132.746094 C 207.125 132.828125 207.074219 132.90625 207.023438 132.984375 C 206.902344 133.167969 206.78125 133.351562 206.644531 133.535156 C 206.441406 133.800781 206.222656 134.046875 205.976562 134.269531 C 205.613281 134.617188 205.199219 134.890625 204.742188 135.09375 C 204.460938 134.3125 204.292969 133.507812 204.238281 132.683594 C 204.21875 132.410156 204.203125 132.132812 204.207031 131.851562 C 204.210938 131.515625 204.234375 131.179688 204.273438 130.847656 C 204.308594 130.535156 204.363281 130.226562 204.429688 129.917969 L 204.085938 130.34375 C 203.96875 130.492188 203.839844 130.632812 203.707031 130.765625 C 202.601562 131.910156 201.097656 132.578125 199.574219 132.578125 L 182.410156 132.578125 C 182.40625 132.597656 182.410156 132.613281 182.40625 132.632812 C 182.382812 132.835938 182.347656 133.035156 182.308594 133.230469 C 182.125 134.144531 181.785156 134.996094 181.292969 135.785156 C 181.207031 135.929688 181.113281 136.066406 181.015625 136.203125 C 180.382812 137.121094 179.589844 137.875 178.640625 138.464844 C 177.398438 139.253906 176.042969 139.65625 174.570312 139.667969 C 173.175781 139.683594 171.910156 139.28125 170.777344 138.464844 C 170.078125 137.953125 169.515625 137.320312 169.09375 136.566406 C 168.878906 136.183594 168.707031 135.785156 168.578125 135.371094 C 168.367188 134.671875 168.277344 133.960938 168.300781 133.230469 C 168.308594 133.035156 168.316406 132.835938 168.339844 132.632812 C 168.339844 132.613281 168.347656 132.597656 168.347656 132.578125 L 165.410156 132.578125 C 165.605469 130.894531 166.058594 129.285156 166.773438 127.746094 L 159.304688 127.746094 C 159.1875 127.75 159.078125 127.730469 158.972656 127.683594 C 158.863281 127.636719 158.773438 127.570312 158.695312 127.480469 C 158.617188 127.394531 158.5625 127.296875 158.53125 127.183594 C 158.496094 127.074219 158.488281 126.960938 158.503906 126.84375 C 158.539062 126.589844 158.648438 126.378906 158.839844 126.207031 C 159.03125 126.035156 159.253906 125.945312 159.511719 125.941406 L 170.578125 125.941406 C 170.832031 125.933594 171.054688 125.847656 171.246094 125.675781 C 171.4375 125.503906 171.550781 125.292969 171.582031 125.039062 C 171.597656 124.921875 171.589844 124.808594 171.558594 124.699219 C 171.523438 124.585938 171.46875 124.488281 171.390625 124.398438 C 171.316406 124.3125 171.222656 124.246094 171.117188 124.199219 C 171.011719 124.152344 170.898438 124.132812 170.78125 124.132812 L 153.527344 124.132812 C 153.410156 124.136719 153.296875 124.113281 153.191406 124.070312 C 153.085938 124.023438 152.992188 123.957031 152.917969 123.867188 C 152.839844 123.78125 152.785156 123.683594 152.75 123.570312 C 152.71875 123.460938 152.707031 123.347656 152.726562 123.230469 C 152.757812 122.976562 152.871094 122.765625 153.0625 122.59375 C 153.253906 122.421875 153.476562 122.332031 153.730469 122.328125 Z M 171.492188 132.632812 C 171.460938 132.964844 171.46875 133.292969 171.523438 133.621094 C 171.773438 135.28125 173.132812 136.511719 174.929688 136.511719 C 176.730469 136.511719 178.371094 135.28125 178.996094 133.621094 C 179.125 133.300781 179.207031 132.972656 179.253906 132.632812 C 179.253906 132.613281 179.25 132.597656 179.253906 132.578125 L 171.503906 132.578125 C 171.503906 132.597656 171.496094 132.613281 171.492188 132.632812 Z M 171.492188 132.632812 " fill-opacity="1" fill-rule="nonzero"/></g><path fill="#ffffff" d="M 168.652344 104.726562 L 168.214844 104.726562 C 168.105469 104.726562 168.015625 104.765625 167.9375 104.839844 C 167.859375 104.917969 167.824219 105.011719 167.824219 105.117188 C 167.824219 105.226562 167.859375 105.320312 167.9375 105.394531 C 168.015625 105.472656 168.105469 105.511719 168.214844 105.511719 L 168.652344 105.511719 C 168.757812 105.511719 168.851562 105.472656 168.929688 105.394531 C 169.003906 105.320312 169.042969 105.226562 169.042969 105.117188 C 169.042969 105.011719 169.003906 104.917969 168.929688 104.839844 C 168.851562 104.765625 168.757812 104.726562 168.652344 104.726562 Z M 168.652344 104.726562 " fill-opacity="1" fill-rule="nonzero"/><g clip-path="url(#bf8ea8c126)"><path fill="#ffffff" d="M 176.234375 96.703125 C 175.1875 96.703125 174.210938 96.957031 173.296875 97.46875 C 172.386719 97.980469 171.660156 98.683594 171.113281 99.574219 C 171.089844 99.566406 171.066406 99.5625 171.039062 99.558594 L 168.859375 99.558594 C 168.75 99.558594 168.660156 99.597656 168.582031 99.675781 C 168.507812 99.75 168.46875 99.84375 168.46875 99.953125 C 168.46875 100.0625 168.507812 100.152344 168.582031 100.230469 C 168.660156 100.308594 168.75 100.34375 168.859375 100.34375 L 170.714844 100.34375 C 170.546875 100.734375 170.417969 101.136719 170.335938 101.550781 L 172.527344 101.550781 C 172.871094 101.550781 173.152344 101.972656 173.152344 102.316406 C 173.152344 102.371094 173.144531 102.425781 173.128906 102.480469 C 173.089844 102.265625 172.964844 102.15625 172.746094 102.15625 L 167.09375 102.15625 C 166.988281 102.15625 166.894531 102.195312 166.816406 102.269531 C 166.742188 102.347656 166.703125 102.441406 166.703125 102.550781 C 166.703125 102.65625 166.742188 102.75 166.816406 102.828125 C 166.894531 102.902344 166.988281 102.941406 167.09375 102.941406 L 170.222656 102.941406 C 170.238281 103.347656 170.296875 103.75 170.390625 104.144531 L 173.648438 104.144531 C 173.832031 104.171875 173.980469 104.257812 174.097656 104.398438 C 174.21875 104.539062 174.273438 104.699219 174.269531 104.882812 C 174.269531 104.964844 174.253906 105.042969 174.222656 105.117188 C 174.222656 105.007812 174.183594 104.914062 174.109375 104.839844 C 174.03125 104.761719 173.941406 104.722656 173.832031 104.722656 L 170.292969 104.722656 C 170.191406 104.730469 170.105469 104.773438 170.035156 104.851562 C 169.964844 104.925781 169.933594 105.015625 169.933594 105.117188 C 169.933594 105.21875 169.964844 105.308594 170.035156 105.382812 C 170.105469 105.460938 170.191406 105.503906 170.292969 105.511719 L 170.914062 105.511719 C 171.246094 106.144531 171.675781 106.699219 172.203125 107.179688 C 172.734375 107.660156 173.328125 108.035156 173.992188 108.300781 C 174.65625 108.570312 175.34375 108.714844 176.058594 108.734375 C 176.773438 108.757812 177.46875 108.65625 178.144531 108.429688 C 178.824219 108.203125 179.441406 107.867188 180 107.421875 C 180.558594 106.976562 181.023438 106.449219 181.394531 105.835938 C 181.761719 105.226562 182.015625 104.570312 182.152344 103.867188 C 182.289062 103.164062 182.300781 102.460938 182.183594 101.757812 C 182.070312 101.050781 181.839844 100.386719 181.488281 99.765625 C 181.136719 99.144531 180.6875 98.601562 180.144531 98.136719 C 179.601562 97.675781 178.992188 97.320312 178.324219 97.074219 C 177.652344 96.824219 176.960938 96.703125 176.246094 96.703125 Z M 176.628906 107.054688 C 176.621094 107.15625 176.578125 107.242188 176.5 107.3125 C 176.425781 107.382812 176.335938 107.417969 176.234375 107.417969 C 176.132812 107.417969 176.042969 107.382812 175.96875 107.3125 C 175.890625 107.242188 175.847656 107.15625 175.839844 107.054688 L 175.839844 107.007812 C 175.832031 106.894531 175.863281 106.792969 175.941406 106.707031 C 176.023438 106.621094 176.117188 106.578125 176.234375 106.578125 C 176.351562 106.578125 176.449219 106.621094 176.527344 106.707031 C 176.605469 106.792969 176.636719 106.894531 176.628906 107.007812 Z M 178.28125 104.40625 C 178.207031 104.5 178.109375 104.546875 177.992188 104.550781 C 177.898438 104.550781 177.816406 104.523438 177.746094 104.460938 L 175.855469 102.929688 L 175.855469 98.832031 C 175.863281 98.726562 175.90625 98.640625 175.980469 98.574219 C 176.058594 98.503906 176.148438 98.46875 176.25 98.46875 C 176.351562 98.46875 176.441406 98.503906 176.515625 98.574219 C 176.59375 98.640625 176.632812 98.726562 176.644531 98.832031 L 176.644531 102.558594 L 178.238281 103.855469 C 178.320312 103.925781 178.367188 104.011719 178.375 104.121094 C 178.382812 104.230469 178.351562 104.324219 178.28125 104.40625 Z M 180.691406 102.351562 C 180.800781 102.351562 180.894531 102.390625 180.96875 102.464844 C 181.046875 102.542969 181.085938 102.636719 181.085938 102.742188 C 181.085938 102.851562 181.046875 102.945312 180.96875 103.019531 C 180.894531 103.097656 180.800781 103.136719 180.691406 103.136719 L 180.644531 103.136719 C 180.535156 103.136719 180.441406 103.097656 180.367188 103.019531 C 180.289062 102.945312 180.25 102.851562 180.25 102.742188 C 180.25 102.636719 180.289062 102.542969 180.367188 102.464844 C 180.441406 102.390625 180.535156 102.351562 180.644531 102.351562 Z M 180.691406 102.351562 " fill-opacity="1" fill-rule="nonzero"/></g><g fill="#ffffff" fill-opacity="1"><g transform="translate(27.721601, 187.35138)"><g><path d="M 22.421875 -10.03125 L 13.46875 -10.03125 C 12.800781 -7.9375 12.082031 -6.117188 11.3125 -4.578125 C 10.550781 -3.046875 9.703125 -1.769531 8.765625 -0.75 C 7.828125 0.257812 6.800781 1.007812 5.6875 1.5 C 4.570312 1.988281 3.328125 2.234375 1.953125 2.234375 C 1.191406 2.234375 0.457031 2.164062 -0.25 2.03125 C -0.957031 1.894531 -1.578125 1.707031 -2.109375 1.46875 C -2.648438 1.226562 -3.082031 0.945312 -3.40625 0.625 C -3.726562 0.300781 -3.890625 -0.046875 -3.890625 -0.421875 C -3.890625 -0.710938 -3.847656 -1.003906 -3.765625 -1.296875 C -3.679688 -1.585938 -3.554688 -1.851562 -3.390625 -2.09375 C -3.234375 -2.34375 -3.039062 -2.539062 -2.8125 -2.6875 C -2.582031 -2.84375 -2.328125 -2.921875 -2.046875 -2.921875 C -1.785156 -2.921875 -1.5625 -2.742188 -1.375 -2.390625 C -1.1875 -2.046875 -0.945312 -1.664062 -0.65625 -1.25 C -0.363281 -0.832031 0.0078125 -0.445312 0.46875 -0.09375 C 0.9375 0.25 1.570312 0.421875 2.375 0.421875 C 3.195312 0.421875 3.976562 0.222656 4.71875 -0.171875 C 5.46875 -0.566406 6.1875 -1.1875 6.875 -2.03125 C 7.5625 -2.875 8.222656 -3.953125 8.859375 -5.265625 C 9.492188 -6.585938 10.113281 -8.175781 10.71875 -10.03125 L 5.109375 -10.03125 L 5.109375 -12.109375 L 11.328125 -12.109375 C 11.847656 -13.890625 12.359375 -15.679688 12.859375 -17.484375 C 13.359375 -19.285156 13.828125 -21.019531 14.265625 -22.6875 C 14.710938 -24.351562 15.109375 -25.910156 15.453125 -27.359375 C 15.804688 -28.804688 16.101562 -30.066406 16.34375 -31.140625 C 16.03125 -32.035156 15.597656 -32.628906 15.046875 -32.921875 C 14.503906 -33.222656 13.773438 -33.375 12.859375 -33.375 C 11.992188 -33.375 11.109375 -33.242188 10.203125 -32.984375 C 9.296875 -32.722656 8.46875 -32.347656 7.71875 -31.859375 C 6.976562 -31.378906 6.363281 -30.785156 5.875 -30.078125 C 5.394531 -29.378906 5.15625 -28.59375 5.15625 -27.71875 C 5.15625 -27.21875 5.222656 -26.816406 5.359375 -26.515625 C 5.492188 -26.210938 5.648438 -25.984375 5.828125 -25.828125 C 6.015625 -25.679688 6.191406 -25.585938 6.359375 -25.546875 C 6.535156 -25.515625 6.671875 -25.5 6.765625 -25.5 C 7.148438 -25.5 7.472656 -25.5625 7.734375 -25.6875 C 7.992188 -25.820312 8.222656 -25.960938 8.421875 -26.109375 C 8.617188 -26.265625 8.8125 -26.410156 9 -26.546875 C 9.195312 -26.679688 9.410156 -26.75 9.640625 -26.75 C 9.816406 -26.75 10.007812 -26.703125 10.21875 -26.609375 C 10.4375 -26.523438 10.632812 -26.390625 10.8125 -26.203125 C 11 -26.015625 11.15625 -25.765625 11.28125 -25.453125 C 11.40625 -25.148438 11.46875 -24.773438 11.46875 -24.328125 C 11.46875 -23.691406 11.34375 -23.144531 11.09375 -22.6875 C 10.851562 -22.226562 10.539062 -21.84375 10.15625 -21.53125 C 9.769531 -21.226562 9.328125 -21 8.828125 -20.84375 C 8.328125 -20.695312 7.832031 -20.625 7.34375 -20.625 C 6.582031 -20.625 5.894531 -20.757812 5.28125 -21.03125 C 4.675781 -21.3125 4.160156 -21.6875 3.734375 -22.15625 C 3.304688 -22.632812 2.976562 -23.191406 2.75 -23.828125 C 2.53125 -24.460938 2.421875 -25.128906 2.421875 -25.828125 C 2.421875 -26.867188 2.59375 -27.828125 2.9375 -28.703125 C 3.289062 -29.585938 3.773438 -30.390625 4.390625 -31.109375 C 5.015625 -31.828125 5.742188 -32.457031 6.578125 -33 C 7.421875 -33.550781 8.328125 -34.015625 9.296875 -34.390625 C 10.273438 -34.765625 11.296875 -35.046875 12.359375 -35.234375 C 13.421875 -35.421875 14.488281 -35.515625 15.5625 -35.515625 C 17.082031 -35.515625 18.367188 -35.390625 19.421875 -35.140625 C 20.472656 -34.898438 21.351562 -34.535156 22.0625 -34.046875 C 22.78125 -33.566406 23.359375 -32.957031 23.796875 -32.21875 C 24.234375 -31.488281 24.59375 -30.640625 24.875 -29.671875 L 29.984375 -12.109375 L 35.140625 -12.109375 L 35.140625 -10.03125 L 30.546875 -10.03125 L 32.40625 -3.796875 C 32.46875 -3.554688 32.53125 -3.332031 32.59375 -3.125 C 32.65625 -2.925781 32.726562 -2.75 32.8125 -2.59375 C 32.90625 -2.445312 33.019531 -2.328125 33.15625 -2.234375 C 33.289062 -2.140625 33.460938 -2.09375 33.671875 -2.09375 C 34.109375 -2.09375 34.515625 -2.164062 34.890625 -2.3125 C 35.273438 -2.46875 35.609375 -2.625 35.890625 -2.78125 L 36.296875 -1.90625 C 36.015625 -1.695312 35.65625 -1.460938 35.21875 -1.203125 C 34.78125 -0.941406 34.28125 -0.691406 33.71875 -0.453125 C 33.15625 -0.210938 32.535156 -0.015625 31.859375 0.140625 C 31.179688 0.296875 30.453125 0.375 29.671875 0.375 C 28.597656 0.375 27.734375 0.242188 27.078125 -0.015625 C 26.421875 -0.285156 25.90625 -0.617188 25.53125 -1.015625 C 25.15625 -1.410156 24.882812 -1.832031 24.71875 -2.28125 C 24.550781 -2.726562 24.421875 -3.113281 24.328125 -3.4375 Z M 17.8125 -26.09375 C 17.164062 -23.445312 16.535156 -20.957031 15.921875 -18.625 C 15.316406 -16.300781 14.710938 -14.128906 14.109375 -12.109375 L 21.859375 -12.109375 Z M 17.8125 -26.09375 "/></g></g></g><g fill="#ffffff" fill-opacity="1"><g transform="translate(64.023723, 187.35138)"><g><path d="M 23.265625 -2.09375 C 23.265625 -1.882812 23.226562 -1.632812 23.15625 -1.34375 C 23.09375 -1.0625 22.9375 -0.796875 22.6875 -0.546875 C 22.445312 -0.296875 22.082031 -0.0820312 21.59375 0.09375 C 21.101562 0.28125 20.4375 0.375 19.59375 0.375 C 18.757812 0.375 18.097656 0.273438 17.609375 0.078125 C 17.128906 -0.117188 16.765625 -0.347656 16.515625 -0.609375 C 16.273438 -0.878906 16.125 -1.15625 16.0625 -1.4375 C 16 -1.726562 15.96875 -1.960938 15.96875 -2.140625 L 15.96875 -18.9375 C 15.96875 -19.15625 15.9375 -19.378906 15.875 -19.609375 C 15.8125 -19.835938 15.710938 -20.046875 15.578125 -20.234375 C 15.453125 -20.429688 15.296875 -20.585938 15.109375 -20.703125 C 14.921875 -20.828125 14.695312 -20.890625 14.4375 -20.890625 C 14.007812 -20.890625 13.585938 -20.765625 13.171875 -20.515625 C 12.765625 -20.265625 12.382812 -19.984375 12.03125 -19.671875 C 11.675781 -19.359375 11.367188 -19.039062 11.109375 -18.71875 C 10.847656 -18.40625 10.660156 -18.171875 10.546875 -18.015625 L 10.546875 -2.09375 C 10.546875 -1.882812 10.515625 -1.632812 10.453125 -1.34375 C 10.390625 -1.0625 10.234375 -0.796875 9.984375 -0.546875 C 9.742188 -0.296875 9.378906 -0.0820312 8.890625 0.09375 C 8.410156 0.28125 7.75 0.375 6.90625 0.375 C 6.070312 0.375 5.410156 0.273438 4.921875 0.078125 C 4.441406 -0.117188 4.070312 -0.347656 3.8125 -0.609375 C 3.5625 -0.878906 3.40625 -1.15625 3.34375 -1.4375 C 3.28125 -1.726562 3.25 -1.960938 3.25 -2.140625 L 3.25 -20.484375 C 3.25 -20.941406 3.140625 -21.335938 2.921875 -21.671875 C 2.710938 -22.015625 2.359375 -22.1875 1.859375 -22.1875 C 1.585938 -22.1875 1.351562 -22.140625 1.15625 -22.046875 C 0.96875 -21.953125 0.765625 -21.816406 0.546875 -21.640625 L 0.046875 -22.234375 C 0.410156 -22.535156 0.816406 -22.832031 1.265625 -23.125 C 1.722656 -23.414062 2.210938 -23.671875 2.734375 -23.890625 C 3.253906 -24.117188 3.816406 -24.300781 4.421875 -24.4375 C 5.023438 -24.582031 5.65625 -24.65625 6.3125 -24.65625 C 7.34375 -24.65625 8.144531 -24.484375 8.71875 -24.140625 C 9.289062 -23.804688 9.707031 -23.398438 9.96875 -22.921875 C 10.238281 -22.453125 10.398438 -21.957031 10.453125 -21.4375 C 10.515625 -20.925781 10.546875 -20.492188 10.546875 -20.140625 C 11.296875 -20.984375 12.097656 -21.738281 12.953125 -22.40625 C 13.296875 -22.6875 13.675781 -22.960938 14.09375 -23.234375 C 14.519531 -23.503906 14.953125 -23.742188 15.390625 -23.953125 C 15.835938 -24.171875 16.296875 -24.34375 16.765625 -24.46875 C 17.242188 -24.59375 17.722656 -24.65625 18.203125 -24.65625 C 19.117188 -24.65625 19.898438 -24.488281 20.546875 -24.15625 C 21.203125 -23.820312 21.726562 -23.421875 22.125 -22.953125 C 22.519531 -22.492188 22.804688 -22.003906 22.984375 -21.484375 C 23.171875 -20.972656 23.265625 -20.523438 23.265625 -20.140625 C 24.023438 -20.984375 24.820312 -21.738281 25.65625 -22.40625 C 26.007812 -22.6875 26.390625 -22.960938 26.796875 -23.234375 C 27.210938 -23.503906 27.644531 -23.742188 28.09375 -23.953125 C 28.539062 -24.171875 29 -24.34375 29.46875 -24.46875 C 29.9375 -24.59375 30.410156 -24.65625 30.890625 -24.65625 C 31.804688 -24.65625 32.585938 -24.484375 33.234375 -24.140625 C 33.890625 -23.804688 34.414062 -23.359375 34.8125 -22.796875 C 35.207031 -22.242188 35.492188 -21.617188 35.671875 -20.921875 C 35.859375 -20.234375 35.953125 -19.539062 35.953125 -18.84375 L 35.953125 -4.140625 C 35.953125 -3.992188 35.957031 -3.835938 35.96875 -3.671875 C 35.988281 -3.503906 36.03125 -3.34375 36.09375 -3.1875 C 36.15625 -3.039062 36.253906 -2.921875 36.390625 -2.828125 C 36.523438 -2.734375 36.703125 -2.6875 36.921875 -2.6875 C 37.222656 -2.6875 37.488281 -2.789062 37.71875 -3 C 37.957031 -3.21875 38.179688 -3.4375 38.390625 -3.65625 L 38.96875 -3.15625 C 38.738281 -2.820312 38.441406 -2.453125 38.078125 -2.046875 C 37.710938 -1.648438 37.28125 -1.269531 36.78125 -0.90625 C 36.289062 -0.539062 35.710938 -0.238281 35.046875 0 C 34.390625 0.25 33.648438 0.375 32.828125 0.375 C 32.128906 0.375 31.523438 0.28125 31.015625 0.09375 C 30.503906 -0.0820312 30.066406 -0.320312 29.703125 -0.625 C 29.347656 -0.9375 29.082031 -1.300781 28.90625 -1.71875 C 28.738281 -2.144531 28.65625 -2.59375 28.65625 -3.0625 L 28.65625 -18.9375 C 28.65625 -19.15625 28.625 -19.378906 28.5625 -19.609375 C 28.5 -19.835938 28.40625 -20.046875 28.28125 -20.234375 C 28.164062 -20.429688 28.007812 -20.585938 27.8125 -20.703125 C 27.625 -20.828125 27.40625 -20.890625 27.15625 -20.890625 C 26.726562 -20.890625 26.300781 -20.765625 25.875 -20.515625 C 25.457031 -20.265625 25.070312 -19.984375 24.71875 -19.671875 C 24.363281 -19.359375 24.054688 -19.039062 23.796875 -18.71875 C 23.546875 -18.40625 23.367188 -18.171875 23.265625 -18.015625 Z M 23.265625 -2.09375 "/></g></g></g><g fill="#ffffff" fill-opacity="1"><g transform="translate(103.24807, 187.35138)"><g><path d="M 1.453125 -12.171875 C 1.453125 -14.242188 1.75 -16.054688 2.34375 -17.609375 C 2.945312 -19.171875 3.75 -20.472656 4.75 -21.515625 C 5.757812 -22.566406 6.929688 -23.351562 8.265625 -23.875 C 9.597656 -24.394531 10.992188 -24.65625 12.453125 -24.65625 C 13.910156 -24.65625 15.300781 -24.414062 16.625 -23.9375 C 17.957031 -23.457031 19.125 -22.71875 20.125 -21.71875 C 21.132812 -20.71875 21.941406 -19.453125 22.546875 -17.921875 C 23.148438 -16.390625 23.453125 -14.582031 23.453125 -12.5 C 23.453125 -10.425781 23.148438 -8.585938 22.546875 -6.984375 C 21.941406 -5.378906 21.132812 -4.03125 20.125 -2.9375 C 19.125 -1.851562 17.957031 -1.03125 16.625 -0.46875 C 15.300781 0.09375 13.910156 0.375 12.453125 0.375 C 10.992188 0.375 9.597656 0.109375 8.265625 -0.421875 C 6.929688 -0.953125 5.757812 -1.738281 4.75 -2.78125 C 3.75 -3.820312 2.945312 -5.125 2.34375 -6.6875 C 1.75 -8.257812 1.453125 -10.085938 1.453125 -12.171875 Z M 16.0625 -12.40625 C 16.0625 -13.664062 16.015625 -14.882812 15.921875 -16.0625 C 15.835938 -17.25 15.664062 -18.300781 15.40625 -19.21875 C 15.15625 -20.132812 14.789062 -20.863281 14.3125 -21.40625 C 13.84375 -21.957031 13.222656 -22.234375 12.453125 -22.234375 C 11.671875 -22.234375 11.039062 -21.941406 10.5625 -21.359375 C 10.09375 -20.785156 9.726562 -20.023438 9.46875 -19.078125 C 9.21875 -18.140625 9.050781 -17.066406 8.96875 -15.859375 C 8.894531 -14.660156 8.859375 -13.429688 8.859375 -12.171875 C 8.859375 -10.898438 8.894531 -9.65625 8.96875 -8.4375 C 9.050781 -7.226562 9.21875 -6.148438 9.46875 -5.203125 C 9.726562 -4.253906 10.09375 -3.488281 10.5625 -2.90625 C 11.039062 -2.332031 11.671875 -2.046875 12.453125 -2.046875 C 13.222656 -2.046875 13.84375 -2.34375 14.3125 -2.9375 C 14.789062 -3.539062 15.15625 -4.332031 15.40625 -5.3125 C 15.664062 -6.300781 15.835938 -7.410156 15.921875 -8.640625 C 16.015625 -9.878906 16.0625 -11.132812 16.0625 -12.40625 Z M 16.0625 -12.40625 "/></g></g></g><g fill="#ffffff" fill-opacity="1"><g transform="translate(128.170142, 187.35138)"><g><path d="M 10.546875 -19.640625 C 11.148438 -20.566406 11.789062 -21.398438 12.46875 -22.140625 C 12.757812 -22.460938 13.066406 -22.769531 13.390625 -23.0625 C 13.722656 -23.363281 14.066406 -23.632812 14.421875 -23.875 C 14.785156 -24.113281 15.15625 -24.300781 15.53125 -24.4375 C 15.914062 -24.582031 16.296875 -24.65625 16.671875 -24.65625 C 17.484375 -24.65625 18.117188 -24.414062 18.578125 -23.9375 C 19.035156 -23.457031 19.265625 -22.78125 19.265625 -21.90625 C 19.265625 -21.363281 19.21875 -20.84375 19.125 -20.34375 C 19.039062 -19.84375 18.875 -19.238281 18.625 -18.53125 L 17.96875 -18.53125 C 17.863281 -19.019531 17.632812 -19.425781 17.28125 -19.75 C 16.9375 -20.070312 16.4375 -20.234375 15.78125 -20.234375 C 15.28125 -20.234375 14.789062 -20.144531 14.3125 -19.96875 C 13.84375 -19.789062 13.382812 -19.566406 12.9375 -19.296875 C 12.488281 -19.023438 12.0625 -18.726562 11.65625 -18.40625 C 11.25 -18.09375 10.878906 -17.796875 10.546875 -17.515625 L 10.546875 -2.09375 C 10.546875 -1.882812 10.515625 -1.632812 10.453125 -1.34375 C 10.390625 -1.0625 10.234375 -0.796875 9.984375 -0.546875 C 9.742188 -0.296875 9.378906 -0.0820312 8.890625 0.09375 C 8.410156 0.28125 7.75 0.375 6.90625 0.375 C 6.070312 0.375 5.410156 0.273438 4.921875 0.078125 C 4.441406 -0.117188 4.070312 -0.347656 3.8125 -0.609375 C 3.5625 -0.878906 3.40625 -1.15625 3.34375 -1.4375 C 3.28125 -1.726562 3.25 -1.960938 3.25 -2.140625 L 3.25 -20.484375 C 3.25 -20.941406 3.140625 -21.335938 2.921875 -21.671875 C 2.710938 -22.015625 2.359375 -22.1875 1.859375 -22.1875 C 1.585938 -22.1875 1.351562 -22.140625 1.15625 -22.046875 C 0.96875 -21.953125 0.765625 -21.816406 0.546875 -21.640625 L 0.046875 -22.234375 C 0.410156 -22.535156 0.816406 -22.832031 1.265625 -23.125 C 1.722656 -23.414062 2.210938 -23.671875 2.734375 -23.890625 C 3.253906 -24.117188 3.816406 -24.300781 4.421875 -24.4375 C 5.023438 -24.582031 5.65625 -24.65625 6.3125 -24.65625 C 7 -24.65625 7.582031 -24.5625 8.0625 -24.375 C 8.550781 -24.195312 8.945312 -23.960938 9.25 -23.671875 C 9.5625 -23.378906 9.800781 -23.050781 9.96875 -22.6875 C 10.144531 -22.320312 10.273438 -21.953125 10.359375 -21.578125 C 10.453125 -21.210938 10.503906 -20.859375 10.515625 -20.515625 C 10.535156 -20.171875 10.546875 -19.878906 10.546875 -19.640625 Z M 10.546875 -19.640625 "/></g></g></g><g fill="#ffffff" fill-opacity="1"><g transform="translate(147.485341, 187.35138)"><g><path d="M 9.09375 -10.90625 C 9.09375 -10.394531 9.164062 -9.84375 9.3125 -9.25 C 9.46875 -8.65625 9.6875 -8.054688 9.96875 -7.453125 C 10.257812 -6.859375 10.613281 -6.285156 11.03125 -5.734375 C 11.457031 -5.191406 11.941406 -4.707031 12.484375 -4.28125 C 13.023438 -3.851562 13.628906 -3.507812 14.296875 -3.25 C 14.960938 -3 15.691406 -2.875 16.484375 -2.875 C 17.035156 -2.875 17.550781 -2.9375 18.03125 -3.0625 C 18.507812 -3.1875 18.953125 -3.359375 19.359375 -3.578125 C 19.773438 -3.804688 20.171875 -4.066406 20.546875 -4.359375 C 20.929688 -4.648438 21.3125 -4.960938 21.6875 -5.296875 L 22.28125 -4.734375 C 21.914062 -4.234375 21.445312 -3.691406 20.875 -3.109375 C 20.3125 -2.523438 19.625 -1.972656 18.8125 -1.453125 C 18.007812 -0.941406 17.066406 -0.515625 15.984375 -0.171875 C 14.910156 0.160156 13.6875 0.328125 12.3125 0.328125 C 10.925781 0.328125 9.578125 0.078125 8.265625 -0.421875 C 6.960938 -0.921875 5.804688 -1.664062 4.796875 -2.65625 C 3.785156 -3.65625 2.972656 -4.898438 2.359375 -6.390625 C 1.753906 -7.878906 1.453125 -9.625 1.453125 -11.625 C 1.453125 -13.0625 1.632812 -14.378906 2 -15.578125 C 2.363281 -16.785156 2.859375 -17.875 3.484375 -18.84375 C 4.109375 -19.8125 4.832031 -20.65625 5.65625 -21.375 C 6.488281 -22.101562 7.363281 -22.707031 8.28125 -23.1875 C 9.207031 -23.675781 10.148438 -24.039062 11.109375 -24.28125 C 12.066406 -24.53125 12.988281 -24.65625 13.875 -24.65625 C 15.039062 -24.65625 16.0625 -24.53125 16.9375 -24.28125 C 17.8125 -24.03125 18.535156 -23.691406 19.109375 -23.265625 C 19.691406 -22.835938 20.125 -22.34375 20.40625 -21.78125 C 20.6875 -21.21875 20.828125 -20.625 20.828125 -20 C 20.828125 -19.257812 20.613281 -18.59375 20.1875 -18 C 19.757812 -17.40625 19.191406 -16.882812 18.484375 -16.4375 Z M 13.875 -15.734375 C 14.082031 -15.859375 14.253906 -15.976562 14.390625 -16.09375 C 14.523438 -16.21875 14.628906 -16.359375 14.703125 -16.515625 C 14.785156 -16.679688 14.84375 -16.890625 14.875 -17.140625 C 14.914062 -17.390625 14.9375 -17.695312 14.9375 -18.0625 C 14.9375 -18.457031 14.894531 -18.894531 14.8125 -19.375 C 14.726562 -19.851562 14.582031 -20.304688 14.375 -20.734375 C 14.164062 -21.160156 13.898438 -21.515625 13.578125 -21.796875 C 13.265625 -22.085938 12.890625 -22.234375 12.453125 -22.234375 C 11.878906 -22.234375 11.390625 -22.0625 10.984375 -21.71875 C 10.578125 -21.382812 10.242188 -20.945312 9.984375 -20.40625 C 9.722656 -19.863281 9.515625 -19.25 9.359375 -18.5625 C 9.210938 -17.875 9.097656 -17.179688 9.015625 -16.484375 C 8.941406 -15.785156 8.894531 -15.113281 8.875 -14.46875 C 8.863281 -13.832031 8.859375 -13.296875 8.859375 -12.859375 Z M 13.875 -15.734375 "/></g></g></g><g fill="#ffffff" fill-opacity="1"><g transform="translate(170.007861, 187.35138)"><g/></g></g><g fill="#ffffff" fill-opacity="1"><g transform="translate(180.960269, 187.35138)"><g><path d="M 19.859375 -3.109375 C 19.859375 -1.890625 19.535156 -1.003906 18.890625 -0.453125 C 18.253906 0.0976562 17.28125 0.375 15.96875 0.375 C 14.632812 0.375 13.648438 0.0976562 13.015625 -0.453125 C 12.378906 -1.003906 12.0625 -1.890625 12.0625 -3.109375 L 12.0625 -31.71875 C 12.0625 -32.0625 12.019531 -32.335938 11.9375 -32.546875 C 11.863281 -32.753906 11.753906 -32.914062 11.609375 -33.03125 C 11.472656 -33.15625 11.304688 -33.234375 11.109375 -33.265625 C 10.910156 -33.304688 10.691406 -33.328125 10.453125 -33.328125 C 10.109375 -33.328125 9.675781 -33.269531 9.15625 -33.15625 C 8.644531 -33.050781 8.101562 -32.882812 7.53125 -32.65625 C 6.957031 -32.4375 6.378906 -32.164062 5.796875 -31.84375 C 5.222656 -31.519531 4.710938 -31.148438 4.265625 -30.734375 C 3.816406 -30.328125 3.445312 -29.867188 3.15625 -29.359375 C 2.875 -28.859375 2.734375 -28.3125 2.734375 -27.71875 C 2.734375 -27.21875 2.800781 -26.816406 2.9375 -26.515625 C 3.070312 -26.210938 3.222656 -25.984375 3.390625 -25.828125 C 3.566406 -25.679688 3.742188 -25.585938 3.921875 -25.546875 C 4.109375 -25.515625 4.242188 -25.5 4.328125 -25.5 C 4.722656 -25.5 5.046875 -25.5625 5.296875 -25.6875 C 5.546875 -25.820312 5.773438 -25.960938 5.984375 -26.109375 C 6.191406 -26.265625 6.382812 -26.410156 6.5625 -26.546875 C 6.75 -26.679688 6.960938 -26.75 7.203125 -26.75 C 7.390625 -26.75 7.585938 -26.703125 7.796875 -26.609375 C 8.015625 -26.523438 8.210938 -26.390625 8.390625 -26.203125 C 8.578125 -26.015625 8.734375 -25.765625 8.859375 -25.453125 C 8.984375 -25.148438 9.046875 -24.773438 9.046875 -24.328125 C 9.046875 -23.691406 8.921875 -23.144531 8.671875 -22.6875 C 8.429688 -22.226562 8.117188 -21.84375 7.734375 -21.53125 C 7.347656 -21.226562 6.90625 -21 6.40625 -20.84375 C 5.90625 -20.695312 5.410156 -20.625 4.921875 -20.625 C 4.160156 -20.625 3.472656 -20.753906 2.859375 -21.015625 C 2.253906 -21.273438 1.738281 -21.632812 1.3125 -22.09375 C 0.882812 -22.550781 0.554688 -23.085938 0.328125 -23.703125 C 0.109375 -24.328125 0 -24.988281 0 -25.6875 C 0 -26.78125 0.195312 -27.78125 0.59375 -28.6875 C 0.988281 -29.59375 1.53125 -30.410156 2.21875 -31.140625 C 2.90625 -31.867188 3.710938 -32.503906 4.640625 -33.046875 C 5.566406 -33.597656 6.566406 -34.054688 7.640625 -34.421875 C 8.722656 -34.785156 9.847656 -35.054688 11.015625 -35.234375 C 12.191406 -35.421875 13.367188 -35.515625 14.546875 -35.515625 C 15.835938 -35.515625 16.84375 -35.390625 17.5625 -35.140625 C 18.289062 -34.898438 18.820312 -34.601562 19.15625 -34.25 C 19.5 -33.90625 19.703125 -33.539062 19.765625 -33.15625 C 19.828125 -32.78125 19.859375 -32.46875 19.859375 -32.21875 Z M 19.859375 -3.109375 "/></g></g></g><g fill="#ffffff" fill-opacity="1"><g transform="translate(204.409348, 187.35138)"><g><path d="M 10.671875 -22.625 L 10.671875 -5.0625 C 10.671875 -4.21875 10.828125 -3.632812 11.140625 -3.3125 C 11.460938 -2.988281 11.898438 -2.828125 12.453125 -2.828125 C 12.878906 -2.828125 13.257812 -2.945312 13.59375 -3.1875 C 13.925781 -3.425781 14.207031 -3.691406 14.4375 -3.984375 C 14.726562 -4.316406 14.976562 -4.707031 15.1875 -5.15625 L 15.921875 -4.828125 C 15.679688 -4.316406 15.398438 -3.757812 15.078125 -3.15625 C 14.753906 -2.550781 14.320312 -1.992188 13.78125 -1.484375 C 13.238281 -0.972656 12.5625 -0.539062 11.75 -0.1875 C 10.9375 0.15625 9.910156 0.328125 8.671875 0.328125 C 7.972656 0.328125 7.300781 0.222656 6.65625 0.015625 C 6.019531 -0.179688 5.453125 -0.5 4.953125 -0.9375 C 4.453125 -1.382812 4.050781 -1.941406 3.75 -2.609375 C 3.445312 -3.273438 3.296875 -4.078125 3.296875 -5.015625 L 3.296875 -22.625 L 0.640625 -22.625 L 0.640625 -24.328125 C 1.085938 -24.328125 1.707031 -24.441406 2.5 -24.671875 C 3.289062 -24.898438 4.097656 -25.28125 4.921875 -25.8125 C 5.753906 -26.351562 6.523438 -27.078125 7.234375 -27.984375 C 7.953125 -28.890625 8.460938 -30.007812 8.765625 -31.34375 L 10.671875 -31.34375 L 10.671875 -24.328125 L 14.546875 -24.328125 C 15.804688 -24.328125 16.4375 -24.539062 16.4375 -24.96875 C 16.4375 -25.125 16.359375 -25.226562 16.203125 -25.28125 C 16.046875 -25.34375 15.867188 -25.414062 15.671875 -25.5 C 15.472656 -25.59375 15.289062 -25.71875 15.125 -25.875 C 14.96875 -26.03125 14.890625 -26.289062 14.890625 -26.65625 C 14.890625 -27.101562 15.03125 -27.453125 15.3125 -27.703125 C 15.59375 -27.953125 15.953125 -28.078125 16.390625 -28.078125 C 16.679688 -28.078125 16.929688 -28.015625 17.140625 -27.890625 C 17.359375 -27.773438 17.535156 -27.617188 17.671875 -27.421875 C 17.816406 -27.222656 17.925781 -27 18 -26.75 C 18.070312 -26.5 18.109375 -26.242188 18.109375 -25.984375 C 18.109375 -24.960938 17.8125 -24.144531 17.21875 -23.53125 C 16.625 -22.925781 15.664062 -22.625 14.34375 -22.625 Z M 10.671875 -22.625 "/></g></g></g><g fill="#ffffff" fill-opacity="1"><g transform="translate(220.802322, 187.35138)"><g><path d="M 13.65625 -12.3125 C 13.65625 -12.707031 13.53125 -13.003906 13.28125 -13.203125 C 13.03125 -13.410156 12.707031 -13.515625 12.3125 -13.515625 C 11.75 -13.515625 11.21875 -13.390625 10.71875 -13.140625 C 10.226562 -12.890625 9.789062 -12.515625 9.40625 -12.015625 C 9.03125 -11.523438 8.726562 -10.921875 8.5 -10.203125 C 8.28125 -9.484375 8.171875 -8.648438 8.171875 -7.703125 C 8.171875 -6.773438 8.238281 -6.007812 8.375 -5.40625 C 8.507812 -4.8125 8.691406 -4.332031 8.921875 -3.96875 C 9.148438 -3.613281 9.414062 -3.363281 9.71875 -3.21875 C 10.019531 -3.082031 10.335938 -3.015625 10.671875 -3.015625 C 11.078125 -3.015625 11.460938 -3.117188 11.828125 -3.328125 C 12.191406 -3.546875 12.507812 -3.820312 12.78125 -4.15625 C 13.050781 -4.488281 13.265625 -4.859375 13.421875 -5.265625 C 13.578125 -5.679688 13.65625 -6.097656 13.65625 -6.515625 Z M 9.890625 -22.71875 C 9.347656 -22.71875 8.847656 -22.648438 8.390625 -22.515625 C 7.929688 -22.390625 7.535156 -22.234375 7.203125 -22.046875 C 6.867188 -21.859375 6.601562 -21.648438 6.40625 -21.421875 C 6.21875 -21.191406 6.125 -20.972656 6.125 -20.765625 C 6.125 -20.523438 6.242188 -20.351562 6.484375 -20.25 C 6.734375 -20.144531 7.007812 -20.023438 7.3125 -19.890625 C 7.613281 -19.765625 7.882812 -19.578125 8.125 -19.328125 C 8.375 -19.078125 8.5 -18.703125 8.5 -18.203125 C 8.5 -17.867188 8.429688 -17.5625 8.296875 -17.28125 C 8.160156 -17.007812 7.976562 -16.765625 7.75 -16.546875 C 7.519531 -16.335938 7.25 -16.171875 6.9375 -16.046875 C 6.632812 -15.929688 6.316406 -15.875 5.984375 -15.875 C 5.097656 -15.875 4.378906 -16.171875 3.828125 -16.765625 C 3.285156 -17.367188 3.015625 -18.171875 3.015625 -19.171875 C 3.015625 -20.140625 3.265625 -20.96875 3.765625 -21.65625 C 4.273438 -22.34375 4.9375 -22.90625 5.75 -23.34375 C 6.570312 -23.789062 7.5 -24.117188 8.53125 -24.328125 C 9.5625 -24.546875 10.59375 -24.65625 11.625 -24.65625 C 12.851562 -24.65625 14.03125 -24.519531 15.15625 -24.25 C 16.28125 -23.988281 17.273438 -23.5625 18.140625 -22.96875 C 19.003906 -22.382812 19.691406 -21.640625 20.203125 -20.734375 C 20.722656 -19.835938 20.984375 -18.75 20.984375 -17.46875 L 20.984375 -4.03125 C 20.984375 -3.894531 20.988281 -3.738281 21 -3.5625 C 21.019531 -3.382812 21.0625 -3.222656 21.125 -3.078125 C 21.1875 -2.941406 21.28125 -2.828125 21.40625 -2.734375 C 21.53125 -2.640625 21.710938 -2.59375 21.953125 -2.59375 C 22.234375 -2.59375 22.492188 -2.695312 22.734375 -2.90625 C 22.984375 -3.125 23.207031 -3.34375 23.40625 -3.5625 L 24 -3.0625 C 23.757812 -2.726562 23.472656 -2.363281 23.140625 -1.96875 C 22.804688 -1.570312 22.398438 -1.195312 21.921875 -0.84375 C 21.453125 -0.5 20.898438 -0.210938 20.265625 0.015625 C 19.628906 0.253906 18.910156 0.375 18.109375 0.375 C 17.109375 0.375 16.21875 0.078125 15.4375 -0.515625 C 14.664062 -1.109375 14.160156 -2.019531 13.921875 -3.25 C 13.410156 -2.570312 12.878906 -2.003906 12.328125 -1.546875 C 11.785156 -1.085938 11.226562 -0.710938 10.65625 -0.421875 C 10.09375 -0.140625 9.519531 0.0625 8.9375 0.1875 C 8.363281 0.3125 7.785156 0.375 7.203125 0.375 C 6.441406 0.375 5.703125 0.253906 4.984375 0.015625 C 4.273438 -0.210938 3.640625 -0.582031 3.078125 -1.09375 C 2.515625 -1.613281 2.0625 -2.285156 1.71875 -3.109375 C 1.382812 -3.929688 1.21875 -4.9375 1.21875 -6.125 C 1.21875 -7.570312 1.5 -8.753906 2.0625 -9.671875 C 2.632812 -10.585938 3.382812 -11.359375 4.3125 -11.984375 C 5.238281 -12.609375 6.289062 -13.140625 7.46875 -13.578125 C 8.644531 -14.023438 9.851562 -14.492188 11.09375 -14.984375 C 12.007812 -15.347656 12.675781 -15.890625 13.09375 -16.609375 C 13.519531 -17.335938 13.734375 -18.082031 13.734375 -18.84375 C 13.734375 -20.007812 13.390625 -20.945312 12.703125 -21.65625 C 12.015625 -22.363281 11.078125 -22.71875 9.890625 -22.71875 Z M 9.890625 -22.71875 "/></g></g></g><g fill="#ffffff" fill-opacity="1"><g transform="translate(245.035414, 187.35138)"><g><path d="M 10.3125 -2.09375 C 10.3125 -1.882812 10.273438 -1.632812 10.203125 -1.34375 C 10.128906 -1.0625 9.960938 -0.796875 9.703125 -0.546875 C 9.441406 -0.296875 9.0625 -0.0820312 8.5625 0.09375 C 8.0625 0.28125 7.394531 0.375 6.5625 0.375 C 5.71875 0.375 5.054688 0.273438 4.578125 0.078125 C 4.109375 -0.117188 3.757812 -0.347656 3.53125 -0.609375 C 3.300781 -0.878906 3.15625 -1.15625 3.09375 -1.4375 C 3.039062 -1.726562 3.015625 -1.960938 3.015625 -2.140625 L 3.015625 -32.78125 C 3.015625 -33.238281 2.90625 -33.640625 2.6875 -33.984375 C 2.476562 -34.328125 2.117188 -34.5 1.609375 -34.5 C 1.347656 -34.5 1.117188 -34.453125 0.921875 -34.359375 C 0.722656 -34.273438 0.507812 -34.144531 0.28125 -33.96875 L -0.1875 -34.546875 C 0.175781 -34.847656 0.578125 -35.144531 1.015625 -35.4375 C 1.460938 -35.726562 1.953125 -35.984375 2.484375 -36.203125 C 3.015625 -36.429688 3.578125 -36.613281 4.171875 -36.75 C 4.773438 -36.894531 5.410156 -36.96875 6.078125 -36.96875 C 7.109375 -36.96875 7.910156 -36.828125 8.484375 -36.546875 C 9.054688 -36.273438 9.472656 -35.9375 9.734375 -35.53125 C 10.003906 -35.125 10.164062 -34.691406 10.21875 -34.234375 C 10.28125 -33.785156 10.3125 -33.390625 10.3125 -33.046875 Z M 10.3125 -2.09375 "/></g></g></g><g fill="#ffffff" fill-opacity="1"><g transform="translate(258.363614, 187.35138)"><g><path d="M 10.546875 -2.140625 C 10.546875 -1.929688 10.507812 -1.679688 10.4375 -1.390625 C 10.363281 -1.097656 10.195312 -0.820312 9.9375 -0.5625 C 9.675781 -0.300781 9.300781 -0.0820312 8.8125 0.09375 C 8.320312 0.28125 7.65625 0.375 6.8125 0.375 C 5.976562 0.375 5.320312 0.273438 4.84375 0.078125 C 4.375 -0.117188 4.019531 -0.347656 3.78125 -0.609375 C 3.539062 -0.878906 3.390625 -1.15625 3.328125 -1.4375 C 3.273438 -1.726562 3.25 -1.960938 3.25 -2.140625 L 3.25 -20.484375 C 3.25 -20.941406 3.140625 -21.335938 2.921875 -21.671875 C 2.710938 -22.015625 2.359375 -22.1875 1.859375 -22.1875 C 1.585938 -22.1875 1.351562 -22.140625 1.15625 -22.046875 C 0.96875 -21.953125 0.765625 -21.816406 0.546875 -21.640625 L 0.046875 -22.234375 C 0.410156 -22.535156 0.816406 -22.832031 1.265625 -23.125 C 1.722656 -23.414062 2.210938 -23.671875 2.734375 -23.890625 C 3.253906 -24.117188 3.816406 -24.300781 4.421875 -24.4375 C 5.023438 -24.582031 5.65625 -24.65625 6.3125 -24.65625 C 7.34375 -24.65625 8.144531 -24.515625 8.71875 -24.234375 C 9.289062 -23.960938 9.707031 -23.625 9.96875 -23.21875 C 10.238281 -22.820312 10.398438 -22.390625 10.453125 -21.921875 C 10.515625 -21.460938 10.546875 -21.0625 10.546875 -20.71875 Z M 2.515625 -30.078125 C 2.515625 -30.523438 2.613281 -30.945312 2.8125 -31.34375 C 3.007812 -31.75 3.285156 -32.101562 3.640625 -32.40625 C 4.003906 -32.707031 4.414062 -32.941406 4.875 -33.109375 C 5.34375 -33.285156 5.859375 -33.375 6.421875 -33.375 C 6.953125 -33.375 7.453125 -33.285156 7.921875 -33.109375 C 8.390625 -32.941406 8.796875 -32.707031 9.140625 -32.40625 C 9.492188 -32.101562 9.769531 -31.75 9.96875 -31.34375 C 10.164062 -30.945312 10.265625 -30.523438 10.265625 -30.078125 C 10.265625 -29.617188 10.164062 -29.191406 9.96875 -28.796875 C 9.769531 -28.398438 9.492188 -28.054688 9.140625 -27.765625 C 8.796875 -27.472656 8.390625 -27.238281 7.921875 -27.0625 C 7.453125 -26.882812 6.953125 -26.796875 6.421875 -26.796875 C 5.859375 -26.796875 5.34375 -26.882812 4.875 -27.0625 C 4.414062 -27.238281 4.003906 -27.472656 3.640625 -27.765625 C 3.285156 -28.054688 3.007812 -28.398438 2.8125 -28.796875 C 2.613281 -29.191406 2.515625 -29.617188 2.515625 -30.078125 Z M 2.515625 -30.078125 "/></g></g></g><g fill="#ffffff" fill-opacity="1"><g transform="translate(271.929395, 187.35138)"><g><path d="M 13.65625 -12.3125 C 13.65625 -12.707031 13.53125 -13.003906 13.28125 -13.203125 C 13.03125 -13.410156 12.707031 -13.515625 12.3125 -13.515625 C 11.75 -13.515625 11.21875 -13.390625 10.71875 -13.140625 C 10.226562 -12.890625 9.789062 -12.515625 9.40625 -12.015625 C 9.03125 -11.523438 8.726562 -10.921875 8.5 -10.203125 C 8.28125 -9.484375 8.171875 -8.648438 8.171875 -7.703125 C 8.171875 -6.773438 8.238281 -6.007812 8.375 -5.40625 C 8.507812 -4.8125 8.691406 -4.332031 8.921875 -3.96875 C 9.148438 -3.613281 9.414062 -3.363281 9.71875 -3.21875 C 10.019531 -3.082031 10.335938 -3.015625 10.671875 -3.015625 C 11.078125 -3.015625 11.460938 -3.117188 11.828125 -3.328125 C 12.191406 -3.546875 12.507812 -3.820312 12.78125 -4.15625 C 13.050781 -4.488281 13.265625 -4.859375 13.421875 -5.265625 C 13.578125 -5.679688 13.65625 -6.097656 13.65625 -6.515625 Z M 9.890625 -22.71875 C 9.347656 -22.71875 8.847656 -22.648438 8.390625 -22.515625 C 7.929688 -22.390625 7.535156 -22.234375 7.203125 -22.046875 C 6.867188 -21.859375 6.601562 -21.648438 6.40625 -21.421875 C 6.21875 -21.191406 6.125 -20.972656 6.125 -20.765625 C 6.125 -20.523438 6.242188 -20.351562 6.484375 -20.25 C 6.734375 -20.144531 7.007812 -20.023438 7.3125 -19.890625 C 7.613281 -19.765625 7.882812 -19.578125 8.125 -19.328125 C 8.375 -19.078125 8.5 -18.703125 8.5 -18.203125 C 8.5 -17.867188 8.429688 -17.5625 8.296875 -17.28125 C 8.160156 -17.007812 7.976562 -16.765625 7.75 -16.546875 C 7.519531 -16.335938 7.25 -16.171875 6.9375 -16.046875 C 6.632812 -15.929688 6.316406 -15.875 5.984375 -15.875 C 5.097656 -15.875 4.378906 -16.171875 3.828125 -16.765625 C 3.285156 -17.367188 3.015625 -18.171875 3.015625 -19.171875 C 3.015625 -20.140625 3.265625 -20.96875 3.765625 -21.65625 C 4.273438 -22.34375 4.9375 -22.90625 5.75 -23.34375 C 6.570312 -23.789062 7.5 -24.117188 8.53125 -24.328125 C 9.5625 -24.546875 10.59375 -24.65625 11.625 -24.65625 C 12.851562 -24.65625 14.03125 -24.519531 15.15625 -24.25 C 16.28125 -23.988281 17.273438 -23.5625 18.140625 -22.96875 C 19.003906 -22.382812 19.691406 -21.640625 20.203125 -20.734375 C 20.722656 -19.835938 20.984375 -18.75 20.984375 -17.46875 L 20.984375 -4.03125 C 20.984375 -3.894531 20.988281 -3.738281 21 -3.5625 C 21.019531 -3.382812 21.0625 -3.222656 21.125 -3.078125 C 21.1875 -2.941406 21.28125 -2.828125 21.40625 -2.734375 C 21.53125 -2.640625 21.710938 -2.59375 21.953125 -2.59375 C 22.234375 -2.59375 22.492188 -2.695312 22.734375 -2.90625 C 22.984375 -3.125 23.207031 -3.34375 23.40625 -3.5625 L 24 -3.0625 C 23.757812 -2.726562 23.472656 -2.363281 23.140625 -1.96875 C 22.804688 -1.570312 22.398438 -1.195312 21.921875 -0.84375 C 21.453125 -0.5 20.898438 -0.210938 20.265625 0.015625 C 19.628906 0.253906 18.910156 0.375 18.109375 0.375 C 17.109375 0.375 16.21875 0.078125 15.4375 -0.515625 C 14.664062 -1.109375 14.160156 -2.019531 13.921875 -3.25 C 13.410156 -2.570312 12.878906 -2.003906 12.328125 -1.546875 C 11.785156 -1.085938 11.226562 -0.710938 10.65625 -0.421875 C 10.09375 -0.140625 9.519531 0.0625 8.9375 0.1875 C 8.363281 0.3125 7.785156 0.375 7.203125 0.375 C 6.441406 0.375 5.703125 0.253906 4.984375 0.015625 C 4.273438 -0.210938 3.640625 -0.582031 3.078125 -1.09375 C 2.515625 -1.613281 2.0625 -2.285156 1.71875 -3.109375 C 1.382812 -3.929688 1.21875 -4.9375 1.21875 -6.125 C 1.21875 -7.570312 1.5 -8.753906 2.0625 -9.671875 C 2.632812 -10.585938 3.382812 -11.359375 4.3125 -11.984375 C 5.238281 -12.609375 6.289062 -13.140625 7.46875 -13.578125 C 8.644531 -14.023438 9.851562 -14.492188 11.09375 -14.984375 C 12.007812 -15.347656 12.675781 -15.890625 13.09375 -16.609375 C 13.519531 -17.335938 13.734375 -18.082031 13.734375 -18.84375 C 13.734375 -20.007812 13.390625 -20.945312 12.703125 -21.65625 C 12.015625 -22.363281 11.078125 -22.71875 9.890625 -22.71875 Z M 9.890625 -22.71875 "/></g></g></g><g fill="#ffffff" fill-opacity="1"><g transform="translate(296.162486, 187.35138)"><g><path d="M 16.9375 -11.828125 C 16.9375 -13.828125 16.84375 -15.421875 16.65625 -16.609375 C 16.476562 -17.804688 16.238281 -18.71875 15.9375 -19.34375 C 15.632812 -19.976562 15.300781 -20.394531 14.9375 -20.59375 C 14.570312 -20.789062 14.203125 -20.890625 13.828125 -20.890625 C 13.367188 -20.890625 12.957031 -20.765625 12.59375 -20.515625 C 12.238281 -20.265625 11.929688 -19.984375 11.671875 -19.671875 C 11.410156 -19.359375 11.1875 -19.039062 11 -18.71875 C 10.820312 -18.40625 10.671875 -18.171875 10.546875 -18.015625 L 10.546875 -2.140625 C 10.546875 -1.929688 10.515625 -1.679688 10.453125 -1.390625 C 10.390625 -1.097656 10.234375 -0.820312 9.984375 -0.5625 C 9.742188 -0.300781 9.378906 -0.0820312 8.890625 0.09375 C 8.410156 0.28125 7.75 0.375 6.90625 0.375 C 6.070312 0.375 5.410156 0.273438 4.921875 0.078125 C 4.441406 -0.117188 4.070312 -0.347656 3.8125 -0.609375 C 3.5625 -0.878906 3.40625 -1.15625 3.34375 -1.4375 C 3.28125 -1.726562 3.25 -1.960938 3.25 -2.140625 L 3.25 -20.484375 C 3.25 -20.941406 3.140625 -21.335938 2.921875 -21.671875 C 2.710938 -22.015625 2.359375 -22.1875 1.859375 -22.1875 C 1.585938 -22.1875 1.351562 -22.140625 1.15625 -22.046875 C 0.96875 -21.953125 0.765625 -21.816406 0.546875 -21.640625 L 0.046875 -22.234375 C 0.410156 -22.535156 0.816406 -22.832031 1.265625 -23.125 C 1.722656 -23.414062 2.210938 -23.671875 2.734375 -23.890625 C 3.253906 -24.117188 3.816406 -24.300781 4.421875 -24.4375 C 5.023438 -24.582031 5.65625 -24.65625 6.3125 -24.65625 C 7.34375 -24.65625 8.144531 -24.484375 8.71875 -24.140625 C 9.289062 -23.804688 9.707031 -23.398438 9.96875 -22.921875 C 10.238281 -22.453125 10.398438 -21.957031 10.453125 -21.4375 C 10.515625 -20.925781 10.546875 -20.492188 10.546875 -20.140625 C 11.128906 -20.984375 11.796875 -21.738281 12.546875 -22.40625 C 12.847656 -22.6875 13.179688 -22.960938 13.546875 -23.234375 C 13.921875 -23.503906 14.316406 -23.742188 14.734375 -23.953125 C 15.160156 -24.171875 15.601562 -24.34375 16.0625 -24.46875 C 16.53125 -24.59375 17.015625 -24.65625 17.515625 -24.65625 C 18.585938 -24.65625 19.539062 -24.445312 20.375 -24.03125 C 21.207031 -23.625 21.90625 -22.9375 22.46875 -21.96875 C 23.039062 -21.007812 23.476562 -19.734375 23.78125 -18.140625 C 24.082031 -16.546875 24.234375 -14.570312 24.234375 -12.21875 C 24.234375 -9.914062 24.023438 -7.914062 23.609375 -6.21875 C 23.203125 -4.53125 22.664062 -3.09375 22 -1.90625 C 21.332031 -0.71875 20.578125 0.25 19.734375 1 C 18.898438 1.757812 18.054688 2.351562 17.203125 2.78125 C 16.347656 3.207031 15.523438 3.503906 14.734375 3.671875 C 13.953125 3.835938 13.273438 3.925781 12.703125 3.9375 L 12.453125 2.96875 C 12.921875 2.851562 13.359375 2.675781 13.765625 2.4375 C 14.171875 2.207031 14.539062 1.863281 14.875 1.40625 C 15.207031 0.945312 15.5 0.363281 15.75 -0.34375 C 16 -1.050781 16.210938 -1.929688 16.390625 -2.984375 C 16.578125 -4.046875 16.710938 -5.300781 16.796875 -6.75 C 16.890625 -8.207031 16.9375 -9.898438 16.9375 -11.828125 Z M 16.9375 -11.828125 "/></g></g></g><g fill="#ffffff" fill-opacity="1"><g transform="translate(322.343728, 187.35138)"><g><path d="M 1.453125 -12.171875 C 1.453125 -14.242188 1.75 -16.054688 2.34375 -17.609375 C 2.945312 -19.171875 3.75 -20.472656 4.75 -21.515625 C 5.757812 -22.566406 6.929688 -23.351562 8.265625 -23.875 C 9.597656 -24.394531 10.992188 -24.65625 12.453125 -24.65625 C 13.910156 -24.65625 15.300781 -24.414062 16.625 -23.9375 C 17.957031 -23.457031 19.125 -22.71875 20.125 -21.71875 C 21.132812 -20.71875 21.941406 -19.453125 22.546875 -17.921875 C 23.148438 -16.390625 23.453125 -14.582031 23.453125 -12.5 C 23.453125 -10.425781 23.148438 -8.585938 22.546875 -6.984375 C 21.941406 -5.378906 21.132812 -4.03125 20.125 -2.9375 C 19.125 -1.851562 17.957031 -1.03125 16.625 -0.46875 C 15.300781 0.09375 13.910156 0.375 12.453125 0.375 C 10.992188 0.375 9.597656 0.109375 8.265625 -0.421875 C 6.929688 -0.953125 5.757812 -1.738281 4.75 -2.78125 C 3.75 -3.820312 2.945312 -5.125 2.34375 -6.6875 C 1.75 -8.257812 1.453125 -10.085938 1.453125 -12.171875 Z M 16.0625 -12.40625 C 16.0625 -13.664062 16.015625 -14.882812 15.921875 -16.0625 C 15.835938 -17.25 15.664062 -18.300781 15.40625 -19.21875 C 15.15625 -20.132812 14.789062 -20.863281 14.3125 -21.40625 C 13.84375 -21.957031 13.222656 -22.234375 12.453125 -22.234375 C 11.671875 -22.234375 11.039062 -21.941406 10.5625 -21.359375 C 10.09375 -20.785156 9.726562 -20.023438 9.46875 -19.078125 C 9.21875 -18.140625 9.050781 -17.066406 8.96875 -15.859375 C 8.894531 -14.660156 8.859375 -13.429688 8.859375 -12.171875 C 8.859375 -10.898438 8.894531 -9.65625 8.96875 -8.4375 C 9.050781 -7.226562 9.21875 -6.148438 9.46875 -5.203125 C 9.726562 -4.253906 10.09375 -3.488281 10.5625 -2.90625 C 11.039062 -2.332031 11.671875 -2.046875 12.453125 -2.046875 C 13.222656 -2.046875 13.84375 -2.34375 14.3125 -2.9375 C 14.789062 -3.539062 15.15625 -4.332031 15.40625 -5.3125 C 15.664062 -6.300781 15.835938 -7.410156 15.921875 -8.640625 C 16.015625 -9.878906 16.0625 -11.132812 16.0625 -12.40625 Z M 16.0625 -12.40625 "/></g></g></g><g fill="#ffffff" fill-opacity="1"><g transform="translate(155.020557, 206.967994)"><g><path d="M 7.53125 -3.875 C 7.53125 -6.015625 5.78125 -7.75 3.625 -7.75 L 0.9375 -7.75 L 0.9375 0 L 3.890625 0 C 5.921875 0 7.53125 -1.8125 7.53125 -3.875 Z M 1.84375 -0.84375 L 1.84375 -6.90625 L 3.625 -6.90625 C 5.265625 -6.90625 6.59375 -5.5625 6.59375 -3.875 C 6.59375 -2.265625 5.328125 -0.84375 3.8125 -0.84375 Z M 1.84375 -0.84375 "/></g></g></g><g fill="#ffffff" fill-opacity="1"><g transform="translate(165.563834, 206.967994)"><g><path d="M 6.390625 -2.703125 C 6.390625 -2.703125 6.40625 -2.84375 6.40625 -2.953125 C 6.40625 -4.78125 5.296875 -6.0625 3.515625 -6.0625 C 1.734375 -6.0625 0.5 -4.6875 0.5 -2.984375 C 0.5 -1.3125 1.734375 0.0625 3.515625 0.0625 C 4.65625 0.0625 5.625 -0.390625 6.171875 -1.125 L 5.5625 -1.609375 C 5.109375 -1.046875 4.421875 -0.734375 3.671875 -0.734375 C 2.5625 -0.734375 1.5625 -1.546875 1.40625 -2.703125 Z M 3.515625 -5.3125 C 4.765625 -5.3125 5.421875 -4.5 5.515625 -3.421875 L 1.421875 -3.421875 C 1.5625 -4.484375 2.390625 -5.3125 3.515625 -5.3125 Z M 3.515625 -5.3125 "/></g></g></g><g fill="#ffffff" fill-opacity="1"><g transform="translate(174.897963, 206.967994)"><g><path d="M 0.84375 -8.296875 L 0.84375 0 L 1.765625 0 L 1.765625 -8.296875 Z M 0.84375 -8.296875 "/></g></g></g><g fill="#ffffff" fill-opacity="1"><g transform="translate(179.967107, 206.967994)"><g><path d="M 1.3125 -6.9375 C 1.625 -6.9375 1.875 -7.1875 1.875 -7.515625 C 1.875 -7.828125 1.625 -8.078125 1.3125 -8.078125 C 1 -8.078125 0.734375 -7.828125 0.734375 -7.515625 C 0.734375 -7.1875 1 -6.9375 1.3125 -6.9375 Z M 0.859375 -5.953125 L 0.859375 0 L 1.765625 0 L 1.765625 -5.953125 Z M 0.859375 -5.953125 "/></g></g></g><g fill="#ffffff" fill-opacity="1"><g transform="translate(185.047251, 206.967994)"><g><path d="M 6.484375 -5.953125 L 5.515625 -5.953125 L 3.375 -1.484375 L 1.21875 -5.953125 L 0.234375 -5.953125 L 3.140625 0 L 3.609375 0 Z M 6.484375 -5.953125 "/></g></g></g><g fill="#ffffff" fill-opacity="1"><g transform="translate(194.216506, 206.967994)"><g><path d="M 6.390625 -2.703125 C 6.390625 -2.703125 6.40625 -2.84375 6.40625 -2.953125 C 6.40625 -4.78125 5.296875 -6.0625 3.515625 -6.0625 C 1.734375 -6.0625 0.5 -4.6875 0.5 -2.984375 C 0.5 -1.3125 1.734375 0.0625 3.515625 0.0625 C 4.65625 0.0625 5.625 -0.390625 6.171875 -1.125 L 5.5625 -1.609375 C 5.109375 -1.046875 4.421875 -0.734375 3.671875 -0.734375 C 2.5625 -0.734375 1.5625 -1.546875 1.40625 -2.703125 Z M 3.515625 -5.3125 C 4.765625 -5.3125 5.421875 -4.5 5.515625 -3.421875 L 1.421875 -3.421875 C 1.5625 -4.484375 2.390625 -5.3125 3.515625 -5.3125 Z M 3.515625 -5.3125 "/></g></g></g><g fill="#ffffff" fill-opacity="1"><g transform="translate(203.550632, 206.967994)"><g><path d="M 1.75 -5.953125 L 0.84375 -5.953125 L 0.84375 0 L 1.75 0 L 1.75 -3.015625 C 1.75 -4.140625 2.390625 -5.171875 3.515625 -5.171875 C 3.765625 -5.171875 4.0625 -5.109375 4.359375 -5 L 4.4375 -5.890625 C 4.1875 -6 3.921875 -6.0625 3.703125 -6.0625 C 2.796875 -6.046875 2.125 -5.546875 1.75 -4.78125 Z M 1.75 -5.953125 "/></g></g></g><g fill="#ffffff" fill-opacity="1"><g transform="translate(210.774251, 206.967994)"><g><path d="M 6.421875 -5.953125 L 5.484375 -5.953125 L 3.5625 -1.078125 L 3.359375 -1.078125 L 1.265625 -5.953125 L 0.296875 -5.953125 L 2.84375 0 L 3.09375 0 C 2.71875 0.984375 1.78125 1.34375 0.6875 1.34375 L 0.546875 1.34375 L 0.453125 2.03125 C 0.578125 2.046875 0.71875 2.046875 0.875 2.046875 C 2.078125 2.046875 3.421875 1.578125 3.921875 0.3125 Z M 6.421875 -5.953125 "/></g></g></g></svg>