<svg width="394" height="403" viewBox="0 0 394 403" fill="none" xmlns="http://www.w3.org/2000/svg">
<path d="M210.007 123.808C210.007 123.808 254.148 157.755 296.002 118.154C337.857 78.5529 429.143 161.151 366.162 229.792C303.181 298.432 416.696 278.825 383.883 330.497C351.071 382.169 206.992 338.396 157.959 294.288C108.926 250.18 40.2855 301.833 27.8379 243.749C15.3903 185.665 104.038 210.556 94.973 124.566C85.908 38.5756 167.01 53.6577 210.007 123.808Z" fill="white"/>
<path d="M144.336 343.446C144.336 343.446 12.3516 345.5 20.334 334.088C28.3165 322.677 212.772 316.897 212.772 316.897L144.336 343.446Z" fill="#161616"/>
<path d="M241.184 88.4635H339.051V326.454H241.184V88.4635Z" fill="#623C05"/>
<path d="M251.044 99.0293H284.047V200.487H251.044V99.0293Z" fill="#623C05" stroke="#514635" stroke-width="1.26"/>
<path fill-rule="evenodd" clip-rule="evenodd" d="M292.499 99.0293H325.502V200.487H292.499V99.0293Z" fill="#623C05" stroke="#514635" stroke-width="1.26"/>
<path d="M251.044 210.621H284.047V312.079H251.044V210.621Z" fill="#623C05" stroke="#514635" stroke-width="1.26"/>
<path d="M292.499 210.621H325.502V312.079H292.499V210.621Z" fill="#623C05" stroke="#514635" stroke-width="1.26"/>
<path d="M231.599 326.431L147.263 339.613V54.6102L231.599 87.5343V326.431Z" fill="black"/>
<path fill-rule="evenodd" clip-rule="evenodd" d="M235.683 82.6463H344.761V332.272H235.683V82.6463ZM339.051 326.454V88.4635H241.389V326.454H339.051Z" fill="#402702"/>
<path opacity="0.33" d="M340.858 82.6463H235.711V332.272H302.21C299.756 322.477 278.704 329.154 269.1 303C256.503 268.71 294.26 238.536 274.996 181.409C252.438 114.571 326.357 91.7578 340.858 82.6463Z" fill="#402702"/>
<path d="M339.051 88.4635H339.681V87.8335H339.051V88.4635ZM339.051 326.454V327.084H339.681V326.454H339.051ZM241.389 326.454H240.759V327.084H241.389V326.454ZM241.389 88.4635V87.8335H240.759V88.4635H241.389ZM344.761 82.6463H345.391V82.0163H344.761V82.6463ZM235.683 82.6463V82.0163H235.053V82.6463H235.683ZM235.683 332.272H235.053V332.902H235.683V332.272ZM344.761 332.272V332.902H345.391V332.272H344.761ZM338.421 88.4635V326.454H339.681V88.4635H338.421ZM339.051 325.824H241.389V327.084H339.051V325.824ZM242.019 326.454V88.4635H240.759V326.454H242.019ZM241.389 89.0935H339.051V87.8335H241.389V89.0935ZM344.761 82.0163H235.683V83.2763H344.761V82.0163ZM235.053 82.6463V332.272H236.313V82.6463H235.053ZM235.683 332.902H344.761V331.642H235.683V332.902ZM345.391 332.272V82.6463H344.131V332.272H345.391Z" fill="#161616"/>
<path fill-rule="evenodd" clip-rule="evenodd" d="M144.336 343.446V49.0532L152.198 51.9525L231.85 81.3407L235.669 82.7346V332.193L230.558 332.825L150.892 342.638L144.336 343.446ZM229.843 86.8048L150.176 57.4305V336.839L229.843 327.021V86.8048Z" fill="#402702"/>
<path d="M144.336 49.0532L144.554 48.4621L143.706 48.1493V49.0532H144.336ZM144.336 343.446H143.706V344.159L144.413 344.071L144.336 343.446ZM152.198 51.9525L152.416 51.3614L152.416 51.3614L152.198 51.9525ZM231.85 81.3407L231.632 81.9317L231.634 81.9325L231.85 81.3407ZM235.669 82.7346H236.299V82.2939L235.885 82.1428L235.669 82.7346ZM235.669 332.193L235.747 332.818L236.299 332.75V332.193H235.669ZM230.558 332.825L230.635 333.45L230.636 333.45L230.558 332.825ZM150.892 342.638L150.815 342.012H150.815L150.892 342.638ZM150.176 57.4305L150.394 56.8394L149.546 56.5268V57.4305H150.176ZM229.843 86.8048H230.473V86.3656L230.061 86.2137L229.843 86.8048ZM150.176 336.839H149.546V337.551L150.253 337.464L150.176 336.839ZM229.843 327.021L229.92 327.647L230.473 327.578V327.021H229.843ZM143.706 49.0532V343.446H144.966V49.0532H143.706ZM152.416 51.3614L144.554 48.4621L144.118 49.6442L151.98 52.5436L152.416 51.3614ZM232.068 80.7496L152.416 51.3614L151.979 52.5435L231.632 81.9317L232.068 80.7496ZM235.885 82.1428L232.066 80.7488L231.634 81.9325L235.453 83.3264L235.885 82.1428ZM236.299 332.193V82.7346H235.039V332.193H236.299ZM230.636 333.45L235.747 332.818L235.592 331.567L230.481 332.199L230.636 333.45ZM150.969 343.263L230.635 333.45L230.481 332.199L150.815 342.012L150.969 343.263ZM144.413 344.071L150.969 343.263L150.815 342.012L144.259 342.821L144.413 344.071ZM149.958 58.0216L229.625 87.3959L230.061 86.2137L150.394 56.8394L149.958 58.0216ZM150.806 336.839V57.4305H149.546V336.839H150.806ZM229.766 326.396L150.099 336.214L150.253 337.464L229.92 327.647L229.766 326.396ZM229.213 86.8048V327.021H230.473V86.8048H229.213Z" fill="#161616"/>
<path d="M174.774 136.888C174.774 136.888 171.257 115.547 182.97 110.868C194.684 106.189 193.657 135.331 189.61 136.888C185.563 138.444 174.774 136.888 174.774 136.888Z" fill="#A20114" stroke="#161616" stroke-width="1.26" stroke-linecap="round"/>
<path d="M192.389 134.37C192.389 134.37 170.086 115.161 182.97 110.859C195.855 106.556 223.7 125.435 227.343 140.921C230.986 156.407 192.389 134.37 192.389 134.37Z" fill="#D8011B" stroke="#161616" stroke-width="1.26" stroke-linecap="round"/>
<path d="M183.37 213.116C183.37 213.116 170.439 224.806 162.759 220.643C155.078 216.48 170.351 204.701 170.351 204.701L183.37 213.116Z" fill="#161616" stroke="#161616" stroke-width="1.26"/>
<path d="M212.772 190.781C189.884 185.763 164.222 197.086 167.187 210.867C186.292 227.459 180.838 252.745 150.529 251.648V288.731C178.068 285.176 198.22 279.903 212.791 273.7C275.628 246.867 234.243 202.429 234.243 202.429C228.277 196.208 220.694 192.514 212.772 190.781Z" fill="#018C33"/>
<path d="M150.529 263.891C168.757 262.962 181.562 257.386 188.592 247.304C199.279 231.971 192.774 212.066 192.486 211.225L190.827 211.782C190.892 211.978 197.332 231.729 187.152 246.309C180.452 255.909 168.135 261.224 150.529 262.135V263.891Z" fill="white"/>
<path d="M199.762 250.793C190.312 264.811 173.325 272.831 150.511 274.076V275.842C180.025 274.262 194.377 261.94 201.249 251.681C208.953 240.209 209.148 229.113 209.171 228.644H207.419C207.438 228.751 207.21 239.749 199.762 250.793Z" fill="white"/>
<path opacity="0.65" d="M234.243 202.429L234.09 202.276C216.963 189.15 193.058 190.985 183.37 195.06C168.093 201.5 169.552 213.116 169.552 213.116C169.552 213.116 181.437 219.923 181.632 241.231C181.827 262.539 213.339 259.133 203.14 269.843C192.941 280.553 175.913 284.6 175.727 284.642C190.902 281.571 203.08 277.854 212.767 273.718C275.628 246.867 234.243 202.429 234.243 202.429Z" fill="#161616"/>
<path fill-rule="evenodd" clip-rule="evenodd" d="M212.772 190.781C189.884 185.763 164.222 197.086 167.187 210.867C186.292 227.459 180.838 252.745 150.529 251.648V288.731C178.068 285.176 198.22 279.903 212.791 273.7C275.628 246.867 234.243 202.429 234.243 202.429C228.277 196.208 220.694 192.514 212.772 190.781V190.781Z" stroke="#161616" stroke-width="1.26"/>
<path d="M200.594 135.28C199.702 132.946 198.571 130.71 197.221 128.608C196.635 127.906 189.545 118.386 194.684 117.303C197.707 116.64 200.867 117.381 203.28 119.32C202.257 119.32 195.251 120.022 199.047 123.232C202.843 126.443 208.604 127.223 208.298 131.805C207.991 136.386 200.594 135.28 200.594 135.28Z" fill="#A20114"/>
<mask id="mask0_12_3429" style="mask-type:luminance" maskUnits="userSpaceOnUse" x="167" y="186" width="93" height="110">
<path fill-rule="evenodd" clip-rule="evenodd" d="M257.312 275.535C255.254 262.061 251.095 245.557 241.979 226.325C239.268 220.518 236.058 214.957 232.384 209.705C211.336 180.048 188.709 186.938 188.709 186.938C188.709 186.938 168.06 193.36 167.196 206.026C167.196 206.026 176.405 211.94 193.833 230.925C202.35 240.367 226.655 269.383 225.266 291.732C230.173 294.233 235.608 295.52 241.115 295.486C247.361 295.451 253.505 293.903 259.022 290.975C258.678 286.389 258.181 281.231 257.312 275.535Z" fill="white"/>
</mask>
<g mask="url(#mask0_12_3429)">
<path d="M257.312 275.535C255.254 262.061 251.095 245.557 241.979 226.325C239.268 220.518 236.058 214.957 232.384 209.705C211.336 180.048 188.709 186.938 188.709 186.938C188.709 186.938 168.06 193.36 167.196 206.026C167.196 206.026 176.405 211.94 193.833 230.925C202.35 240.367 226.655 269.383 225.266 291.732C230.173 294.233 235.608 295.52 241.115 295.486C247.361 295.451 253.505 293.903 259.022 290.975C258.678 286.389 258.181 281.231 257.312 275.535Z" fill="#018C33"/>
</g>
<path d="M245.659 295.189C238.987 263.375 224.007 238.82 212.516 223.742C199.878 207.159 188.606 198.131 188.495 198.038L187.403 199.432C187.514 199.521 198.647 208.446 211.16 224.871C222.502 239.763 237.291 264.003 243.907 295.389C244.497 295.324 245.078 295.263 245.659 295.189Z" fill="white"/>
<path d="M252.903 293.563C246.151 262.497 232.64 237.556 222.33 221.916C210.793 204.413 200.64 194.442 200.538 194.345L199.316 195.599C199.711 195.985 238.234 234.094 251.221 294.074C251.815 293.916 252.378 293.744 252.903 293.563Z" fill="white"/>
<path opacity="0.4" d="M241.105 295.486C247.351 295.451 253.496 293.903 259.013 290.975C258.827 288.257 238.369 298.929 235.061 281.408C231.752 263.887 215.788 238.773 196.71 219.305C181.312 203.591 210.793 199.544 222.729 198.564C221.32 197.249 219.843 196.008 218.306 194.846C201.007 190.6 177.19 194.925 167.261 205.254C167.228 205.51 167.187 205.765 167.173 206.03C167.173 206.03 176.382 211.945 193.81 230.93C202.327 240.371 226.632 269.388 225.243 291.737C230.154 294.238 235.594 295.524 241.105 295.486Z" fill="#161616"/>
<path d="M240.004 222.367C239.196 220.799 238.38 219.299 237.556 217.864" stroke="#161616" stroke-width="1.26" stroke-linecap="round"/>
<path d="M188.699 186.938C188.699 186.938 168.051 193.36 167.187 206.026C167.187 206.026 176.396 211.94 193.824 230.925C202.341 240.367 226.646 269.383 225.257 291.732C230.164 294.233 235.598 295.52 241.106 295.486C247.351 295.451 253.496 293.903 259.013 290.975C258.678 286.389 258.181 281.217 257.312 275.535C255.254 262.061 251.095 245.557 241.979 226.325" stroke="#161616" stroke-width="1.26" stroke-linecap="round"/>
<path d="M223.542 159.39C227.343 140.665 217.618 132.302 217.614 132.297C214.979 131.749 210.212 129.974 210.212 129.974C208.214 128.929 208.404 129.737 204.817 129.375L204.92 129.235C202.366 128.894 199.796 128.691 197.221 128.627C197.407 128.915 197.597 129.231 197.792 129.556C197.23 129.64 196.663 129.732 196.087 129.849C198.759 133.477 202.462 144.108 196.417 149.828C189.447 156.416 186.72 181.446 198.252 197.685C209.98 196.347 221.744 198.773 229.982 202.471C225.903 196.603 218.589 182.306 223.542 159.39Z" fill="white"/>
<path d="M210.193 137.106C210.193 137.106 200.129 128.106 203.493 136.474C206.202 144.768 200.506 144.917 198.847 139.699C197.188 134.481 194.451 126.689 204.938 129.217C210.291 132.576 210.193 137.106 210.193 137.106Z" fill="#C2D2F9"/>
<path d="M225.954 195.088C223.073 193.694 218.952 193.341 211.908 191.125C198.898 187.041 203.805 167.944 205.045 157.759C207.234 139.861 201.876 132.952 199.897 128.733C199.084 128.682 198.196 128.636 197.235 128.608C197.42 128.896 197.611 129.212 197.806 129.537C197.244 129.621 196.677 129.714 196.101 129.83C198.773 133.459 202.476 144.09 196.431 149.809C189.461 156.398 186.734 181.428 198.266 197.667C209.993 196.329 221.758 198.754 229.996 202.453C228.402 200.141 227.047 197.674 225.954 195.088Z" fill="#C2D2F9"/>
<path fill-rule="evenodd" clip-rule="evenodd" d="M223.542 159.39C227.343 140.665 217.618 132.302 217.614 132.297C214.979 131.749 210.212 129.974 210.212 129.974C208.214 128.929 208.404 129.737 204.817 129.375L204.92 129.235C202.366 128.894 199.796 128.691 197.221 128.627C197.407 128.915 197.597 129.231 197.792 129.556C197.23 129.64 196.663 129.732 196.087 129.849C198.759 133.477 202.462 144.108 196.417 149.828C189.447 156.416 186.72 181.446 198.252 197.685C209.98 196.347 221.744 198.773 229.982 202.471C225.903 196.603 218.589 182.306 223.542 159.39Z" stroke="#161616" stroke-width="1.26"/>
<path d="M204.413 129.147C204.413 129.147 209.863 112.42 212.465 110.599C215.067 108.777 220.796 112.076 221.293 115.891C221.791 119.706 222.943 128.297 215.309 129.858C215.393 135.67 217.112 141.938 215.309 144.643C213.506 147.347 207.275 144.675 204.413 129.147Z" fill="#F96353"/>
<path fill-rule="evenodd" clip-rule="evenodd" d="M204.413 129.147C204.413 129.147 209.863 112.42 212.465 110.599C215.067 108.777 220.796 112.076 221.293 115.891C221.791 119.706 222.943 128.297 215.309 129.858C215.393 135.67 217.112 141.938 215.309 144.643C213.506 147.347 207.275 144.675 204.413 129.147Z" stroke="#161616" stroke-width="1.26"/>
<path d="M214.84 115.078C215.005 114.631 215.352 114.275 215.795 114.097C216.238 113.92 216.735 113.939 217.163 114.149C220.601 115.803 228.458 118.772 231.139 112.945C234.605 105.395 226.66 96.8967 222.724 99.9354C218.789 102.974 219.937 107.137 213.701 105.92C207.466 104.703 203.842 108.317 208.465 118.827C210.23 117.285 210.839 113.902 212.312 114.511C213.785 115.12 210.751 121.104 211.703 121.188C212.349 121.244 213.934 117.401 214.84 115.078Z" fill="#161616" stroke="#161616" stroke-width="1.26"/>
<path d="M210.212 127.084C210.212 127.084 211.852 130.569 215.323 129.872" stroke="#161616" stroke-width="1.26" stroke-linecap="round"/>
<path d="M215.332 129.858C211.852 130.569 210.221 127.07 210.221 127.07C209.933 128.715 211.048 133.152 215.332 133.877C215.434 132.144 215.332 129.858 215.332 129.858Z" fill="#161616" stroke="#161616" stroke-width="1.26"/>
<path d="M182.715 165.607C182.715 165.607 180.108 158.874 182.97 153.861" stroke="#161616" stroke-width="1.26" stroke-linecap="round"/>
<path d="M189.327 128.715C181.683 132.897 173.148 141.725 164.236 154.451C143.156 184.508 158.902 222.376 163.586 220.555C171.587 205.584 184.899 199.181 198.252 197.653C186.72 181.428 192.068 162.15 198.155 154.758C206.026 145.195 200.664 134.002 197.225 128.608" fill="#C20118"/>
<path d="M197.913 197.695C192.407 189.633 173.473 203.321 166.341 194.582C154.502 174.054 175.88 151.37 188.146 144.986C196.998 140.382 194.972 132.622 193.164 128.659L189.327 128.715C181.683 132.897 173.148 141.725 164.236 154.451C143.156 184.508 158.902 222.376 163.586 220.555C171.522 205.71 184.671 199.288 197.913 197.695Z" fill="#820110"/>
<path d="M173.204 142.826C170.27 146.233 167.281 150.105 164.236 154.442C143.156 184.499 158.902 222.367 163.586 220.545C171.587 205.575 184.899 199.172 198.252 197.644C186.72 181.418 192.068 162.141 198.155 154.748C206.026 145.186 200.664 133.993 197.225 128.599" stroke="#161616" stroke-width="1.26" stroke-linecap="round"/>
<path d="M284.935 168.511L284.907 168.543L284.935 168.511Z" fill="#2E2E2E" stroke="#161616" stroke-width="1.26"/>
<path d="M284.581 168.752C283.262 169.449 281.059 168.083 278.806 165.449C277.353 163.713 276.093 161.825 275.047 159.818C274.852 159.45 274.671 159.088 274.499 158.73C274.434 158.6 274.373 158.47 274.313 158.34C274.205 158.117 274.102 157.894 274.006 157.671C273.932 157.508 273.858 157.341 273.788 157.178C273.718 157.016 273.644 156.835 273.579 156.663C273.514 156.491 273.421 156.277 273.347 156.082C273.305 155.98 273.272 155.877 273.23 155.771C272.837 154.709 272.514 153.622 272.264 152.518C272.157 152.053 272.069 151.561 272.008 151.124C271.023 151.877 270.029 152.704 269.025 153.615C257.41 164.199 249.251 159.687 238.318 145.642C231.153 136.432 222.632 133.329 217.614 132.283C217.614 132.283 227.343 140.647 223.542 159.376C218.589 182.292 225.903 196.589 229.982 202.425C234.786 204.581 238.397 207.164 240.097 209.691C256.494 203.135 234.113 182.673 230.34 173.566C236.956 177.869 242.908 180.122 248.233 180.893C267.855 184.374 284.219 169.157 284.902 168.511C284.806 168.605 284.698 168.686 284.581 168.752Z" fill="#D8011B"/>
<path d="M240.097 209.705C249.274 206.035 246.3 198.011 241.245 190.056C236.19 182.101 244.962 197.142 241.245 200.492C237.528 203.842 225.689 194.484 225.689 194.484C226.827 197.281 228.267 199.945 229.982 202.429C234.782 204.594 238.397 207.178 240.097 209.705Z" fill="#F98506"/>
<path d="M284.581 168.753C283.262 169.449 281.059 168.083 278.806 165.449C277.353 163.713 276.093 161.825 275.047 159.818C274.852 159.451 274.671 159.088 274.499 158.73C274.434 158.6 274.373 158.47 274.313 158.335C274.206 158.117 274.104 157.894 274.006 157.671C273.909 157.448 273.858 157.341 273.788 157.178C273.718 157.016 273.644 156.835 273.579 156.663C273.514 156.491 273.421 156.277 273.347 156.082C273.305 155.98 273.272 155.877 273.23 155.771C272.837 154.709 272.514 153.623 272.264 152.518C272.157 152.054 272.069 151.561 272.008 151.124C271.827 151.264 271.641 151.422 271.455 151.566C267.989 156.946 274.522 174.797 266.344 170.987C258.167 167.177 250.919 173.083 240.79 171.917C230.66 170.75 230.958 164.594 229.968 160.812C229.968 160.812 227.529 168.739 230.326 173.571C236.942 177.873 242.894 180.127 248.219 180.898C267.841 184.378 284.205 169.161 284.888 168.516C284.796 168.607 284.693 168.687 284.581 168.753Z" fill="#F98506"/>
<path fill-rule="evenodd" clip-rule="evenodd" d="M217.614 132.297C217.614 132.297 227.343 140.661 223.542 159.39C218.589 182.306 225.903 196.603 229.982 202.439C234.786 204.594 238.397 207.178 240.097 209.705C256.494 203.149 234.113 182.687 230.34 173.58C236.956 177.883 242.908 180.136 248.233 180.907C267.855 184.387 284.219 169.171 284.902 168.525C284.805 168.614 284.698 168.691 284.581 168.752C283.262 169.449 281.059 168.083 278.806 165.449C277.353 163.713 276.093 161.825 275.047 159.818C274.852 159.45 274.671 159.088 274.499 158.73C274.434 158.6 274.373 158.47 274.313 158.34C274.205 158.117 274.102 157.894 274.006 157.671C273.932 157.508 273.858 157.341 273.788 157.178C273.718 157.016 273.644 156.835 273.579 156.663C273.514 156.491 273.421 156.277 273.347 156.082C273.305 155.98 273.272 155.877 273.23 155.771C272.837 154.709 272.514 153.622 272.264 152.518C272.157 152.054 272.069 151.561 272.008 151.124C271.023 151.877 270.029 152.704 269.025 153.615C257.41 164.199 249.251 159.687 238.318 145.642C234.709 140.901 230.002 137.109 224.602 134.593" fill="#D8011B"/>
<path d="M217.614 132.297C217.614 132.297 227.343 140.661 223.542 159.39C218.589 182.306 225.903 196.603 229.982 202.439C234.786 204.594 238.397 207.178 240.097 209.705C256.494 203.149 234.113 182.687 230.34 173.58C236.956 177.883 242.908 180.136 248.233 180.907C267.855 184.387 284.219 169.171 284.902 168.525C284.805 168.614 284.698 168.691 284.581 168.752C283.262 169.449 281.059 168.083 278.806 165.449C277.353 163.713 276.093 161.825 275.047 159.818C274.852 159.45 274.671 159.088 274.499 158.73C274.434 158.6 274.373 158.47 274.313 158.34C274.205 158.117 274.102 157.894 274.006 157.671C273.932 157.508 273.858 157.341 273.788 157.178C273.718 157.016 273.644 156.835 273.579 156.663C273.514 156.491 273.421 156.277 273.347 156.082C273.305 155.98 273.272 155.877 273.23 155.771C272.837 154.709 272.514 153.622 272.264 152.518C272.157 152.054 272.069 151.561 272.008 151.124C271.023 151.877 270.029 152.704 269.025 153.615C257.41 164.199 249.251 159.687 238.318 145.642C234.709 140.901 230.002 137.109 224.602 134.593" stroke="#161616" stroke-width="1.26" stroke-linecap="round"/>
<path d="M283.494 157.759C282.909 158.87 282.235 160.082 281.478 161.351C280.72 162.619 279.796 164.055 278.806 165.449C281.059 168.083 283.262 169.449 284.581 168.753C284.697 168.691 284.805 168.614 284.902 168.525L284.93 168.492C286.356 167.117 285.734 162.689 283.494 157.759V157.759Z" fill="#161616" stroke="#161616" stroke-width="1.26"/>
<path d="M295.575 148.597C292.61 144.415 285.251 143.383 276.664 148.086C275.041 148.986 273.488 150.006 272.018 151.138C272.078 151.58 272.166 152.067 272.273 152.532C272.877 155.072 273.814 157.52 275.061 159.813C276.107 161.82 277.367 163.708 278.82 165.444C279.81 164.05 280.679 162.656 281.492 161.346C282.305 160.036 282.923 158.865 283.508 157.755C285.269 154.409 286.249 151.97 286.533 151.649C287.834 150.186 289.688 152.885 290.715 152.579C291.741 152.272 289.414 151.361 290.324 149.628C291.235 147.895 299.389 153.977 295.575 148.597Z" fill="#F96353"/>
<path d="M291.509 149.363C283.522 145.223 282.175 154.772 278.086 156.333C275.298 157.392 273.254 153.545 272.218 150.989L272.008 151.143C272.069 151.584 272.157 152.072 272.264 152.537C272.867 155.076 273.805 157.525 275.052 159.818C276.098 161.825 277.358 163.713 278.811 165.449C279.8 164.055 280.669 162.661 281.482 161.351C282.295 160.041 282.913 158.87 283.499 157.759C285.26 154.414 286.24 151.975 286.524 151.654C287.825 150.19 289.679 152.89 290.705 152.583C291.732 152.277 289.404 151.366 290.315 149.633C290.496 149.308 290.938 149.261 291.509 149.363Z" fill="#E53E23"/>
<path fill-rule="evenodd" clip-rule="evenodd" d="M295.575 148.597C292.61 144.415 285.251 143.383 276.664 148.086C275.041 148.986 273.488 150.006 272.018 151.138C272.078 151.58 272.166 152.067 272.273 152.532C272.877 155.072 273.814 157.52 275.061 159.813C276.107 161.82 277.367 163.708 278.82 165.444C279.81 164.05 280.679 162.656 281.492 161.346C282.305 160.036 282.923 158.865 283.508 157.755C285.269 154.409 286.249 151.97 286.533 151.649C287.834 150.186 289.688 152.885 290.715 152.579C291.741 152.272 289.414 151.361 290.324 149.628C291.235 147.895 299.389 153.977 295.575 148.597V148.597Z" stroke="#161616" stroke-width="1.26"/>
<path d="M200.594 135.28C199.702 132.946 198.571 130.71 197.221 128.608C194.897 128.534 192.221 128.538 189.322 128.715C177.627 129.43 162.652 132.976 156.686 145.655C154.521 150.21 154.095 155.398 155.487 160.245C156.053 162.382 156.831 164.457 157.81 166.439C161.778 174.802 171.824 189.02 195.042 192.156C197.211 192.449 199.488 192.649 201.895 192.732C200.673 192.546 199.985 189.847 199.967 185.939C199.97 183.539 200.158 181.142 200.529 178.77C201.128 174.83 202.095 171.336 203.154 169.013C199.692 168.044 196.154 167.366 192.579 166.987L192.272 166.95C174.152 164.627 182.831 148.448 191.678 147.839" fill="#D8011B"/>
<path d="M201.876 192.728C200.654 192.542 199.967 189.842 199.948 185.935C199.951 183.534 200.139 181.137 200.51 178.765C201.11 174.825 202.076 171.331 203.136 169.008L202.597 168.859C196.422 167.73 189.972 186.516 185.814 176.884C181.53 166.959 165.179 175.132 163.233 153.88C161.286 132.627 189.861 131.758 189.861 131.758C189.215 130.708 187.58 129.7 186.794 128.933C175.276 129.797 162.48 133.38 156.695 145.66C154.531 150.215 154.104 155.403 155.496 160.25C156.062 162.387 156.84 164.462 157.82 166.443C161.788 174.807 171.833 189.025 195.051 192.161C197.193 192.444 199.47 192.644 201.876 192.728Z" fill="#D8011B"/>
<path d="M180.28 129.853C170.806 131.712 161.188 136.093 156.691 145.651C154.526 150.205 154.1 155.394 155.492 160.24C156.057 162.377 156.836 164.452 157.815 166.434C161.783 174.797 171.828 189.015 195.046 192.152C197.216 192.444 199.493 192.644 201.9 192.728C200.678 192.542 199.99 189.842 199.971 185.935C199.974 183.534 200.162 181.137 200.534 178.765C201.133 174.825 202.099 171.331 203.159 169.008C199.696 168.039 196.159 167.361 192.584 166.982L192.277 166.945C174.156 164.622 182.836 148.443 191.682 147.835" stroke="#161616" stroke-width="1.26" stroke-linecap="round"/>
<path d="M200.594 135.28C199.702 132.946 198.571 130.71 197.221 128.608C196.635 127.906 189.545 118.386 194.684 117.303C197.707 116.64 200.867 117.381 203.28 119.32" stroke="#161616" stroke-width="1.26" stroke-linecap="round"/>
<path d="M202.885 185.637C201.9 185.763 200.919 185.865 199.948 185.935C199.948 189.842 200.654 192.542 201.876 192.728C203.27 192.941 204.985 189.782 206.235 185.084C205.115 185.312 203.995 185.489 202.885 185.637Z" fill="#161616" stroke="#161616" stroke-width="1.26" stroke-linecap="round"/>
<path d="M207.805 170.63C206.283 169.985 204.724 169.432 203.135 168.976C202.076 171.331 201.11 174.811 200.51 178.733C200.133 181.115 199.94 183.523 199.934 185.935C200.905 185.865 201.886 185.763 202.871 185.637C203.981 185.489 205.101 185.312 206.221 185.084C207.946 184.744 209.652 184.313 211.332 183.793C214.119 184.118 212.372 190.669 215.235 189.889C218.097 189.108 217.056 182.343 218.097 183.384C219.138 184.425 220.006 186.766 220.006 185.033C220.016 183.714 219.858 175.736 207.805 170.63Z" fill="#F96353"/>
<path d="M204.413 179.472C201.7 180.271 202.713 172.669 203.34 169.05L203.135 168.989C202.076 171.345 201.11 174.825 200.51 178.747C200.133 181.124 199.941 183.527 199.934 185.935C200.905 185.865 201.886 185.763 202.871 185.637C203.981 185.489 205.101 185.312 206.221 185.084C207.946 184.744 209.652 184.313 211.332 183.793C214.119 184.118 212.372 190.669 215.235 189.889C218.882 180.475 207.954 178.426 204.413 179.472Z" fill="#E53E23"/>
<path fill-rule="evenodd" clip-rule="evenodd" d="M207.805 170.63C206.283 169.985 204.724 169.432 203.135 168.976C202.076 171.331 201.11 174.811 200.51 178.733C200.133 181.115 199.94 183.523 199.934 185.935C200.905 185.865 201.886 185.763 202.871 185.637C203.981 185.489 205.101 185.312 206.221 185.084C207.946 184.744 209.652 184.313 211.332 183.793C214.119 184.118 212.372 190.669 215.235 189.889C218.097 189.108 217.056 182.343 218.097 183.384C219.138 184.425 220.006 186.766 220.006 185.033C220.016 183.714 219.858 175.736 207.805 170.63V170.63Z" stroke="#161616" stroke-width="1.26" stroke-linecap="round"/>
<path d="M186.79 128.915C185.86 128.287 200.64 139.815 195.464 150.506C195.464 145.038 187.872 129.988 173.357 135.982C175.88 133.552 186.79 128.915 186.79 128.915Z" fill="#A20114"/>
<path d="M186.79 128.915C185.86 128.287 200.64 139.815 195.464 150.506" stroke="#161616" stroke-width="1.26" stroke-linecap="round"/>
<path d="M224.499 134.29C224.499 134.29 229.754 143.49 226.432 152.5" stroke="#161616" stroke-width="1.26" stroke-linecap="round"/>
<path d="M262.26 314.806C259.686 311.019 259.886 302.93 259.008 290.975C253.491 293.903 247.347 295.451 241.101 295.486C245.113 303.231 248.38 311.34 250.858 319.703C251.118 319.545 251.272 319.466 251.272 319.466C251.272 319.466 259.482 320.368 262.26 314.806Z" fill="#F96353"/>
<path d="M250.844 300.096C253.967 298.167 255.997 294.697 257.219 291.876C252.168 294.219 246.673 295.45 241.105 295.486C245.118 303.231 248.385 311.34 250.863 319.703C251.123 319.545 251.276 319.466 251.276 319.466C251.276 319.466 259.5 320.368 262.279 314.82C254.808 321.729 245.004 303.72 250.844 300.096Z" fill="#E53E23"/>
<path fill-rule="evenodd" clip-rule="evenodd" d="M262.26 314.806C259.686 311.019 259.886 302.93 259.008 290.975C253.491 293.903 247.347 295.451 241.101 295.486C245.113 303.231 248.38 311.34 250.858 319.703C251.118 319.545 251.272 319.466 251.272 319.466C251.272 319.466 259.482 320.368 262.26 314.806V314.806Z" stroke="#161616" stroke-width="1.26"/>
<path d="M284.298 318.277C279.786 318.277 268.161 323.481 262.26 314.806C259.473 320.382 251.258 319.452 251.258 319.452C251.258 319.452 251.104 319.531 250.844 319.689C252.118 324.058 253.093 328.509 253.762 333.01C260.699 333.373 285.859 321.399 284.298 318.277Z" fill="#2E2E2E"/>
<path d="M251.258 319.466C251.258 319.466 251.104 319.545 250.844 319.703C252.118 324.072 253.093 328.523 253.762 333.024C260.699 333.373 285.859 321.408 284.298 318.277C283.562 318.298 282.828 318.379 282.105 318.518C277.799 321.556 273.142 324.063 268.236 325.985C256.155 330.757 253.985 319.48 253.985 319.48C253.077 319.554 252.165 319.55 251.258 319.466Z" fill="black"/>
<path fill-rule="evenodd" clip-rule="evenodd" d="M284.298 318.277C279.786 318.277 268.161 323.481 262.26 314.806C259.473 320.382 251.258 319.452 251.258 319.452C251.258 319.452 251.104 319.531 250.844 319.689C252.118 324.058 253.093 328.509 253.762 333.01C260.699 333.373 285.859 321.399 284.298 318.277V318.277Z" stroke="#161616"/>
<path d="M229.982 160.821C229.982 160.821 227.543 168.748 230.34 173.58" stroke="#161616" stroke-linecap="round"/>
<path d="M218.542 118.879C218.594 118.487 217.79 118.058 216.747 117.921C215.704 117.784 214.816 117.99 214.765 118.382C214.713 118.774 215.517 119.203 216.56 119.34C217.603 119.477 218.49 119.271 218.542 118.879Z" fill="white" stroke="#161515"/>
<path d="M217.428 118.065C218.125 118.261 218.594 118.581 218.557 118.883C218.52 119.185 217.976 119.376 217.256 119.385C216.875 119.232 216.628 118.92 216.666 118.637C216.763 118.297 217.074 118.064 217.428 118.065Z" fill="#161515"/>
<path d="M224.513 119.777C224.564 119.385 223.761 118.956 222.718 118.819C221.674 118.681 220.787 118.888 220.735 119.279C220.684 119.671 221.488 120.1 222.531 120.237C223.574 120.375 224.461 120.168 224.513 119.777Z" fill="white" stroke="#161515" stroke-width="1.26"/>
<path d="M223.398 118.962C224.095 119.157 224.564 119.483 224.527 119.785C224.49 120.087 223.946 120.277 223.226 120.286C222.845 120.128 222.599 119.822 222.636 119.534C222.735 119.195 223.046 118.962 223.398 118.962Z" fill="#161515"/>
<path d="M219.635 119.534C219.779 120.305 220.764 121.392 221.247 122.21C222.079 123.641 220.044 123.409 218.873 123.07" stroke="#161616" stroke-width="1.26" stroke-linecap="round"/>
<path d="M217.209 126.949C217.953 126.949 218.557 126.346 218.557 125.602C218.557 124.858 217.953 124.254 217.209 124.254C216.465 124.254 215.862 124.858 215.862 125.602C215.862 126.346 216.465 126.949 217.209 126.949Z" fill="#161515" stroke="#161515" stroke-width="1.26" stroke-linecap="round"/>
<path d="M262.26 314.806C260.908 312.817 260.327 309.635 259.937 305.341C253.679 310.917 246.927 308.361 246.927 308.361L246.746 307.897C248.301 311.755 249.661 315.69 250.821 319.685C251.081 319.527 251.235 319.448 251.235 319.448C251.235 319.448 259.482 320.368 262.26 314.806Z" fill="white"/>
<path d="M250.24 308.933C249.122 308.904 248.013 308.712 246.951 308.361L246.769 307.897C247.55 309.845 248.281 311.8 248.962 313.761C249.014 313.909 249.06 314.063 249.111 314.225C249.395 315.052 249.673 315.884 249.938 316.716C250.248 317.71 250.558 318.704 250.867 319.699C251.128 319.541 251.281 319.462 251.281 319.462C251.281 319.462 259.505 320.363 262.284 314.815C257.818 318.932 252.54 314.197 250.24 308.933Z" fill="#C2D2F9"/>
<path fill-rule="evenodd" clip-rule="evenodd" d="M262.26 314.806C260.908 312.817 260.327 309.635 259.937 305.341C253.679 310.917 246.927 308.361 246.927 308.361L246.746 307.897C248.301 311.755 249.661 315.69 250.821 319.685C251.081 319.527 251.235 319.448 251.235 319.448C251.235 319.448 259.482 320.368 262.26 314.806Z" stroke="#161616" stroke-width="1.26"/>
<rect x="328.61" y="188.109" width="8.50283" height="30.1316" rx="4.25141" fill="white" stroke="#161616" stroke-width="1.26"/>
<path d="M332.862 210.337C333.557 210.337 334.121 209.774 334.121 209.078C334.121 208.383 333.557 207.819 332.862 207.819C332.166 207.819 331.603 208.383 331.603 209.078C331.603 209.774 332.166 210.337 332.862 210.337Z" fill="#161616"/>
<rect x="332.439" y="209.599" width="0.84099" height="2.62054" rx="0.420495" fill="#161616"/>
<path opacity="0.42" d="M332.927 196.705C331.443 196.706 330.071 197.493 329.321 198.773H321.473C320.694 198.736 319.957 199.131 319.556 199.801C319.155 200.471 319.155 201.307 319.556 201.977C319.957 202.647 320.694 203.042 321.473 203.005H329.321C330.347 204.751 332.477 205.511 334.377 204.809C336.276 204.106 337.399 202.144 337.043 200.15C336.686 198.157 334.952 196.705 332.927 196.705V196.705Z" fill="#0F59B2"/>
<path d="M332.927 194.805C331.443 194.805 330.071 195.592 329.321 196.872H321.474C320.694 196.836 319.957 197.231 319.556 197.901C319.155 198.571 319.155 199.407 319.556 200.077C319.957 200.746 320.694 201.142 321.474 201.105H329.321C330.347 202.851 332.477 203.611 334.377 202.908C336.276 202.206 337.4 200.243 337.043 198.25C336.686 196.256 334.952 194.805 332.927 194.805V194.805Z" fill="white" stroke="#161616" stroke-width="1.26"/>
<path d="M267.604 316.888C267.604 316.888 264.351 317.273 264.165 320.605" stroke="#161616" stroke-width="1.26" stroke-linecap="round"/>
<path d="M270.122 317.533C270.122 317.533 266.87 317.919 266.684 321.25" stroke="#161616" stroke-width="1.26" stroke-linecap="round"/>
<path d="M272.417 318.737C272.417 318.737 269.165 319.122 268.979 322.454" stroke="#161616" stroke-width="1.26" stroke-linecap="round"/>
<path opacity="0.56" d="M258.278 326.933C259.944 326.933 261.294 325.583 261.294 323.917C261.294 322.252 259.944 320.902 258.278 320.902C256.613 320.902 255.263 322.252 255.263 323.917C255.263 325.583 256.613 326.933 258.278 326.933Z" fill="white"/>
<path d="M270.401 316.293C270.401 316.293 272.826 314.165 273.737 315.364C274.648 316.562 270.401 316.293 270.401 316.293Z" fill="#161616"/>
<path d="M270.401 316.293C270.401 316.293 269.197 313.301 267.845 313.97C266.493 314.639 270.401 316.293 270.401 316.293Z" fill="#161616"/>
<path d="M216.336 336.472C216.336 336.472 265.759 334.056 285.762 337.076C303.134 339.696 250.956 336.834 249.585 341.601C248.214 346.369 194.651 342.15 216.336 336.472Z" fill="#161616"/>
<path d="M293.358 337.661C293.358 337.661 301.118 336.346 302.619 337.661C304.119 338.976 289.112 338.168 293.358 337.661Z" fill="#161616"/>
<path d="M282.249 141.19C282.249 141.19 295.119 139.703 298.474 148.332" stroke="#161616" stroke-width="1.26" stroke-linecap="round"/>
<path d="M255.114 162.071C255.114 162.071 262.706 162.215 264.872 159.748C267.037 157.281 268.658 156.993 269.546 158.874C270.433 160.756 266.186 162.155 262.316 163.363C258.446 164.571 259.18 168.753 255.091 166.295C251.002 163.837 252.647 162.155 255.114 162.071Z" fill="white"/>
<path d="M263.125 164.552C263.125 164.552 267.065 162.508 266.484 164.552C265.903 166.597 259.203 166.597 263.125 164.552Z" fill="white"/>
<path d="M182.97 146.436C182.97 146.436 175.295 149.689 175.197 155.357C175.099 161.026 177.729 151.886 180.457 150.897C183.184 149.907 186.906 148.151 186.748 147.277C186.59 146.404 185.317 145.154 182.97 146.436Z" fill="white"/>
<path d="M178.965 154.772C178.965 154.772 176.856 157.304 178.412 157.592C179.969 157.88 181.242 153.796 178.965 154.772Z" fill="white"/>
<path d="M253.679 271.451C254.013 273.514 254.292 275.6 254.515 277.709" stroke="white" stroke-width="1.26" stroke-linecap="round"/>
<path d="M229.843 211.504C229.843 211.504 246.272 235.242 252.61 265.796" stroke="white" stroke-width="1.26" stroke-linecap="round"/>
<path d="M152.764 285.599C152.764 285.599 160.691 285.892 171.986 282.681" stroke="white" stroke-width="1.26" stroke-linecap="round"/>
<path d="M234.624 185.084C235.478 186.234 236.462 187.282 237.556 188.207C242.667 192.388 244.456 199.739 241.974 203.976" stroke="white" stroke-width="1.26" stroke-linecap="round"/>
<path d="M228.997 174.639C229.743 176.581 230.612 178.473 231.599 180.303" stroke="white" stroke-width="1.26" stroke-linecap="round"/>
<path d="M188.532 112.573C188.532 112.573 181.758 112.355 182.301 117.066C182.845 121.778 186.752 124.254 186.752 124.254" stroke="white" stroke-width="1.26" stroke-linecap="round"/>
<path d="M331.603 106.575C331.603 106.575 317.296 112.411 321.381 135.336C325.465 158.261 315.805 167.767 320.642 173.529C325.479 179.29 333.024 160.826 331.584 142.607C330.144 124.389 340.928 99.861 331.603 106.575Z" fill="#604723"/>
<path d="M316.437 179.044C316.437 179.044 309.425 182.882 312.929 186.632C316.432 190.381 323.151 179.662 316.437 179.044Z" fill="#604723"/>
<path d="M333.284 294.074C331.488 297.701 330.9 301.807 331.607 305.792C332.792 312.455 326.31 313.877 327.36 318.277C328.41 322.677 334.604 318.137 335.45 312.525C336.295 306.912 334.604 290.571 333.284 294.074Z" fill="#604723"/>
<path d="M319.271 318.277C319.271 318.277 315.415 315.921 314.755 318.277C314.095 320.633 319.768 324.47 319.271 318.277Z" fill="#604723"/>
<path d="M254.097 149.763V103.086H276.432" stroke="#161616" stroke-width="1.26"/>
<path d="M254.097 249.85V215.509H261.294" stroke="#161616" stroke-width="1.26"/>
<path d="M295.7 105.441V123.966" stroke="#161616" stroke-width="1.26"/>
<path d="M295.412 218.241V265.796" stroke="#161616" stroke-width="1.26"/>
<path d="M6.71093 339.613C6.71093 339.613 -13.1476 337.754 -1.07636 332.272C10.9949 326.789 22.6712 339.223 6.71093 339.613Z" fill="#161616"/>
<path d="M342.717 73.2978C342.717 73.2978 350.504 72.5219 348.557 101.334" stroke="#161616" stroke-width="1.26" stroke-linecap="round"/>
<path d="M140.647 171.001V234.489" stroke="#161616" stroke-width="1.26" stroke-linecap="round"/>
</svg>
